<svg width="19" height="18" viewBox="0 0 19 18" fill="none" xmlns="http://www.w3.org/2000/svg">
<path d="M17.0025 7.35516H3.55919L7.67379 2.01153C7.86618 1.76124 7.95875 1.43856 7.93111 1.11448C7.90348 0.790395 7.75791 0.491456 7.52643 0.283424C7.29495 0.0753914 6.99652 -0.0246938 6.6968 0.00518615C6.39707 0.0350661 6.1206 0.192464 5.9282 0.442753L0.260705 7.79638C0.222575 7.85487 0.188477 7.91632 0.15869 7.98022C0.15869 8.0415 0.15869 8.07827 0.0793451 8.13955C0.0279676 8.28008 0.00106676 8.42966 0 8.58077C0.00106676 8.73187 0.0279676 8.88146 0.0793451 9.02198C0.0793451 9.08326 0.0793448 9.12003 0.15869 9.18131C0.188477 9.24522 0.222575 9.30666 0.260705 9.36515L5.9282 16.7188C6.03477 16.8571 6.16823 16.9684 6.31908 17.0446C6.46993 17.1209 6.63447 17.1603 6.80099 17.16C7.06584 17.1606 7.3225 17.0608 7.52643 16.8781C7.64121 16.7752 7.73608 16.6489 7.80563 16.5063C7.87517 16.3637 7.91801 16.2076 7.9317 16.0471C7.94539 15.8866 7.92965 15.7247 7.88539 15.5708C7.84114 15.4168 7.76923 15.2739 7.67379 15.15L3.55919 9.80637H17.0025C17.3031 9.80637 17.5914 9.67725 17.804 9.4474C18.0166 9.21755 18.136 8.90582 18.136 8.58077C18.136 8.25572 18.0166 7.94398 17.804 7.71413C17.5914 7.48429 17.3031 7.35516 17.0025 7.35516Z" fill="#646464"/>
</svg>
