<svg width="33" height="33" viewBox="0 0 33 33" fill="none" xmlns="http://www.w3.org/2000/svg">
<circle cx="16.5" cy="16.5" r="16.5" fill="#D8D8D8"/>
<path d="M14.1618 25.2179C14.9175 25.2179 15.5301 24.6053 15.5301 23.8495C15.5301 23.0938 14.9175 22.4812 14.1618 22.4812C13.4061 22.4812 12.7935 23.0938 12.7935 23.8495C12.7935 24.6053 13.4061 25.2179 14.1618 25.2179Z" fill="#4F4F4F"/>
<path d="M21.2795 25.2179C22.0352 25.2179 22.6478 24.6053 22.6478 23.8495C22.6478 23.0938 22.0352 22.4812 21.2795 22.4812C20.5238 22.4812 19.9111 23.0938 19.9111 23.8495C19.9111 24.6053 20.5238 25.2179 21.2795 25.2179Z" fill="#4F4F4F"/>
<path d="M23.1919 15.0943C22.1032 15.0943 21.059 14.6618 20.2892 13.892C19.5194 13.1222 19.0869 12.078 19.0869 10.9893H11.8128L11.5665 10.2066C11.5394 10.1226 11.4924 10.0463 11.4295 9.98439C11.3666 9.92244 11.2897 9.87662 11.2052 9.85085L8.96116 9.16121C8.89215 9.14001 8.81965 9.1326 8.74779 9.13942C8.67592 9.14624 8.60611 9.16714 8.54232 9.20094C8.4135 9.2692 8.31707 9.38583 8.27425 9.52519C8.23143 9.66455 8.24572 9.81521 8.31398 9.94403C8.38223 10.0728 8.49887 10.1693 8.63823 10.2121L10.6032 10.8142L13.11 18.7341L12.2178 19.4675L12.1467 19.5387C11.926 19.7942 11.801 20.1184 11.793 20.4558C11.785 20.7933 11.8946 21.1231 12.1029 21.3887C12.252 21.5701 12.4416 21.7141 12.6564 21.8091C12.8712 21.9042 13.1053 21.9476 13.3398 21.936H22.4749C22.62 21.936 22.7593 21.8784 22.8619 21.7757C22.9646 21.6731 23.0222 21.5339 23.0222 21.3887C23.0222 21.2435 22.9646 21.1043 22.8619 21.0017C22.7593 20.899 22.62 20.8414 22.4749 20.8414H13.2523C13.1892 20.8392 13.1278 20.8208 13.074 20.788C13.0201 20.7552 12.9756 20.7091 12.9448 20.654C12.914 20.599 12.8979 20.537 12.8981 20.4739C12.8982 20.4108 12.9147 20.3489 12.9458 20.294L14.2648 19.1993H22.7102C22.8353 19.203 22.9578 19.1637 23.0574 19.088C23.1569 19.0123 23.2276 18.9048 23.2576 18.7834L24.1935 14.952C23.8668 15.0406 23.5304 15.0884 23.1919 15.0943Z" fill="#4F4F4F"/>
<path d="M23.1893 13.7234C24.7007 13.7234 25.926 12.4981 25.926 10.9867C25.926 9.47525 24.7007 8.25 23.1893 8.25C21.6779 8.25 20.4526 9.47525 20.4526 10.9867C20.4526 12.4981 21.6779 13.7234 23.1893 13.7234Z" fill="#4F4F4F"/>
</svg>
