<svg width="31" height="31" viewBox="0 0 31 31" fill="none" xmlns="http://www.w3.org/2000/svg">
<g opacity="0.9">
<path d="M2.8122 19.2817L2.09618 20.0254C1.50915 20.6326 1.18173 21.4446 1.18338 22.2891V26.1478C1.18152 26.5217 1.28712 26.8883 1.48761 27.204C1.6881 27.5197 1.97505 27.7711 2.31431 27.9284V29.3744C2.31486 29.8054 2.48631 30.2185 2.79105 30.5233C3.09579 30.828 3.50895 30.9995 3.93991 31H6.07267C6.50364 30.9995 6.91679 30.828 7.22154 30.5233C7.52628 30.2185 7.69772 29.8054 7.69827 29.3744V28.6543C9.72082 28.7588 11.6461 28.7519 12.7185 28.735C13.1384 28.7287 13.5585 28.7297 13.9672 28.739C14.417 28.7491 15.0415 28.7596 15.7039 28.7596C16.5065 28.7596 17.3649 28.7443 18.0352 28.6944C18.3579 28.6826 18.6718 28.6688 18.977 28.6531V29.3744C18.9776 29.8055 19.1492 30.2188 19.4541 30.5236C19.759 30.8284 20.1724 30.9997 20.6036 31H22.7358C23.1667 30.9995 23.5799 30.828 23.8846 30.5233C24.1894 30.2185 24.3608 29.8054 24.3614 29.3744V27.9284C24.7006 27.7711 24.9875 27.5197 25.188 27.2041C25.3884 26.8885 25.4941 26.5219 25.4923 26.148V22.2891C25.4939 21.4446 25.1665 20.6326 24.5795 20.0254L23.8635 19.2817C24.4246 19.2586 24.9832 19.1932 25.5345 19.0863C25.8579 19.0158 26.1474 18.8369 26.355 18.5792C26.5626 18.3215 26.6757 18.0005 26.6757 17.6696V17.2727C26.6752 17.0452 26.6215 16.821 26.5188 16.618C26.4161 16.4151 26.2673 16.239 26.0843 16.1039C25.7262 15.8483 25.3321 15.6472 24.9149 15.5072C24.7167 15.4385 24.5055 15.4159 24.2973 15.441C24.089 15.4661 23.8893 15.5384 23.7131 15.6523C23.537 15.7661 23.3891 15.9186 23.2807 16.0982C23.1722 16.2778 23.1062 16.4797 23.0874 16.6886C23.0752 16.8234 23.0665 16.96 23.0615 17.095C23.0598 17.1446 23.0678 17.1941 23.0851 17.2407C23.1024 17.2873 23.1288 17.3299 23.1626 17.3663C23.1965 17.4027 23.2371 17.432 23.2823 17.4527C23.3275 17.4733 23.3763 17.4849 23.4259 17.4867C23.4756 17.4885 23.5251 17.4805 23.5716 17.4631C23.6182 17.4458 23.6609 17.4195 23.6973 17.3856C23.7336 17.3518 23.763 17.3111 23.7836 17.2659C23.8043 17.2208 23.8158 17.1719 23.8176 17.1223C23.822 17.0013 23.8298 16.8786 23.8409 16.7575C23.8493 16.662 23.8795 16.5698 23.9292 16.4879C23.9788 16.4059 24.0466 16.3365 24.1274 16.2849C24.2062 16.2337 24.2958 16.2012 24.3892 16.1901C24.4826 16.179 24.5774 16.1894 24.6661 16.2207C25.0123 16.3359 25.3395 16.5018 25.6371 16.7129C25.7248 16.7775 25.7961 16.8618 25.8453 16.959C25.8946 17.0562 25.9203 17.1635 25.9206 17.2725V17.6694C25.9213 17.827 25.8681 17.9801 25.7698 18.1032C25.6714 18.2263 25.5339 18.312 25.3801 18.3461C24.6969 18.4724 24.0039 18.539 23.3092 18.5452C22.8637 17.6095 21.5716 14.9774 20.4124 13.4056C20.1483 13.0485 19.7848 12.7772 19.3675 12.6254C18.24 12.2112 15.9577 11.5161 13.3388 11.5161C10.72 11.5161 8.43669 12.211 7.30936 12.6256C6.89195 12.7773 6.52848 13.0487 6.26434 13.4057C5.10524 14.9774 3.81289 17.6102 3.36765 18.5454C2.6728 18.5392 1.9798 18.4726 1.29651 18.3462C1.14272 18.3121 1.00525 18.2264 0.906936 18.1033C0.808624 17.9802 0.755394 17.8272 0.756095 17.6696V17.2727C0.756349 17.1637 0.782129 17.0564 0.831368 16.9592C0.880607 16.862 0.951935 16.7777 1.03963 16.7131C1.33725 16.502 1.66446 16.3361 2.01064 16.2208C2.09937 16.1896 2.19408 16.1791 2.28748 16.1903C2.38088 16.2014 2.47048 16.2339 2.54936 16.2851C2.63009 16.3367 2.6979 16.4061 2.74757 16.4881C2.79723 16.57 2.82743 16.6622 2.83583 16.7577C2.84689 16.8797 2.85473 17.0024 2.85908 17.1226C2.8627 17.2228 2.906 17.3176 2.97946 17.3859C3.05292 17.4542 3.15052 17.4906 3.25078 17.487C3.35105 17.4834 3.44576 17.4401 3.5141 17.3666C3.58244 17.2931 3.61879 17.1955 3.61517 17.0953C3.61026 16.9613 3.60166 16.8248 3.58928 16.6889C3.57053 16.48 3.50444 16.2781 3.39603 16.0985C3.28762 15.919 3.13973 15.7665 2.96358 15.6526C2.78744 15.5387 2.58767 15.4665 2.37944 15.4413C2.17121 15.4162 1.95998 15.4388 1.76179 15.5075C1.34463 15.6475 0.950543 15.8486 0.5924 16.1042C0.409277 16.2391 0.260307 16.4151 0.157433 16.6179C0.0545582 16.8208 0.000639941 17.0449 3.06e-08 17.2724V17.6693C-6.79349e-05 18.0002 0.113085 18.3212 0.320657 18.5789C0.528229 18.8366 0.817724 19.0155 1.14104 19.0859C1.69239 19.193 2.25102 19.2585 2.8122 19.2817V19.2817ZM6.94246 29.3744C6.94214 29.6049 6.85042 29.8259 6.68743 29.9889C6.52443 30.1519 6.30346 30.2436 6.07295 30.2439H3.9401C3.70959 30.2436 3.4886 30.1519 3.3256 29.9889C3.1626 29.8259 3.07089 29.6049 3.07059 29.3744V28.1413C4.21012 28.3739 5.57648 28.5194 6.94265 28.6096L6.94246 29.3744ZM13.9845 27.9831C13.7408 27.9775 13.4931 27.9749 13.2438 27.9749C13.0653 27.9749 12.886 27.9763 12.7068 27.9791C12.097 27.9886 10.9053 27.998 9.50033 27.9628L9.65958 27.7895C9.80344 27.6334 9.97805 27.5088 10.1724 27.4235C10.3668 27.3381 10.5767 27.294 10.789 27.2937H15.8869C16.0991 27.294 16.3091 27.3381 16.5035 27.4235C16.6978 27.5088 16.8724 27.6334 17.0163 27.7895L17.1924 27.981C16.0859 28.0189 14.7678 28.0005 13.9845 27.9828V27.9831ZM22.7358 30.2439H20.6036C20.3731 30.2436 20.1521 30.1519 19.9891 29.9889C19.8261 29.8259 19.7344 29.6049 19.7341 29.3744V28.6089C21.2834 28.5076 22.5796 28.3512 23.6061 28.1418V29.3744C23.6058 29.6051 23.514 29.8262 23.3508 29.9892C23.1876 30.1522 22.9664 30.2438 22.7358 30.2439V30.2439ZM6.8729 13.8544C7.04939 13.6168 7.29198 13.4363 7.5704 13.3357C8.43991 13.0161 10.7429 12.2728 13.3383 12.2728C15.9337 12.2728 18.2363 13.0161 19.1061 13.3357C19.3845 13.4365 19.6269 13.6171 19.8033 13.8549C20.972 15.4396 22.2993 18.1793 22.6784 18.9815C22.7766 19.1894 22.9081 19.3799 23.0678 19.5454L24.0354 20.5502C24.4864 21.0166 24.7379 21.6404 24.7367 22.2892V26.1478C24.7387 26.4198 24.6481 26.6844 24.4798 26.8981C24.3114 27.1117 24.0754 27.2618 23.8105 27.3235C22.4778 27.6335 20.5812 27.8378 18.1742 27.932L17.5727 27.2776C17.3579 27.0445 17.0973 26.8585 16.8071 26.7311C16.517 26.6037 16.2036 26.5377 15.8867 26.5373H10.789C10.4721 26.5377 10.1587 26.6037 9.86852 26.7311C9.57834 26.8585 9.31767 27.0445 9.10291 27.2776L8.50266 27.9305C6.57075 27.8549 4.42041 27.6854 2.86446 27.3234C2.59974 27.2615 2.36396 27.1114 2.19585 26.8977C2.02775 26.6841 1.93734 26.4196 1.93948 26.1478V22.2891C1.93825 21.6403 2.18979 21.0165 2.64075 20.5501L3.60827 19.5451C3.76794 19.3795 3.89953 19.189 3.99785 18.981C4.37684 18.1789 5.70426 15.439 6.8729 13.8544V13.8544Z" fill="#444444"/>
<path d="M2.71161 21.9999C2.63922 22.1524 2.6022 22.3192 2.6033 22.488V23.3377C2.60266 23.6212 2.68732 23.8983 2.84628 24.1331C3.00525 24.3678 3.23115 24.5493 3.49464 24.6539C4.00503 24.8443 4.54175 24.9548 5.08584 24.9814C5.10975 24.9828 5.13309 24.9834 5.15719 24.9834C5.33814 24.9839 5.51724 24.9471 5.68332 24.8753C5.8494 24.8034 5.99889 24.6981 6.12244 24.566C6.39713 24.2873 6.72882 24.0713 7.09478 23.9327C7.3115 23.8477 7.49746 23.6992 7.62826 23.5066C7.75905 23.3141 7.82858 23.0865 7.82772 22.8537V22.2966C7.82772 22.2066 7.79558 22.1195 7.73709 22.051C7.6786 21.9826 7.59759 21.9373 7.50865 21.9232C6.39876 21.7563 5.30139 21.5148 4.22398 21.2003C4.02876 21.1408 3.82124 21.1344 3.62269 21.1816C3.42415 21.2288 3.24172 21.3279 3.0941 21.4688C2.93597 21.6216 2.80644 21.8015 2.71161 21.9999V21.9999ZM3.35939 22.488C3.35866 22.4322 3.37038 22.3769 3.3937 22.3262C3.44919 22.2099 3.52495 22.1045 3.61741 22.0148C3.69042 21.9453 3.78745 21.9066 3.88828 21.9069C3.92763 21.9069 3.96676 21.9127 4.00443 21.9241C5.0113 22.2194 6.03571 22.4513 7.07163 22.6183V22.8541C7.07196 22.9352 7.04777 23.0145 7.00223 23.0816C6.95669 23.1487 6.89193 23.2005 6.81644 23.2302C6.34639 23.41 5.92104 23.6898 5.56983 24.0502C5.5132 24.1103 5.44406 24.1572 5.36731 24.1877C5.29056 24.2181 5.20806 24.2314 5.12563 24.2265C4.66085 24.2041 4.20229 24.1102 3.76607 23.9482C3.64492 23.8989 3.54138 23.8144 3.46891 23.7055C3.39644 23.5966 3.35838 23.4685 3.35967 23.3377L3.35939 22.488Z" fill="#444444"/>
<path d="M17.031 22.1881C15.9612 22.2911 10.7154 22.2911 9.64531 22.1881C9.51012 22.1751 9.3737 22.1904 9.24481 22.2333C9.11592 22.2761 8.99742 22.3455 8.89693 22.4368C8.79644 22.5282 8.71619 22.6396 8.66133 22.7638C8.60646 22.8881 8.5782 23.0224 8.57837 23.1583C8.57804 23.4744 8.66805 23.784 8.83781 24.0507C8.92391 24.1859 9.01445 24.3175 9.10707 24.4415C9.5252 24.9943 10.1449 25.3593 10.8311 25.4571C11.124 25.4993 12.2311 25.5203 13.3384 25.5203C14.4457 25.5203 15.5527 25.4993 15.8455 25.4571C16.5315 25.3593 17.1511 24.9942 17.5692 24.4415C17.6614 24.3179 17.752 24.1864 17.8385 24.0506C18.0082 23.784 18.0982 23.4744 18.0979 23.1583C18.0981 23.0224 18.0698 22.8881 18.0149 22.7639C17.9601 22.6396 17.8798 22.5282 17.7794 22.4369C17.6789 22.3455 17.5604 22.2762 17.4315 22.2333C17.3026 22.1905 17.1662 22.1751 17.031 22.1881V22.1881ZM17.2005 23.6446C17.124 23.7647 17.0441 23.8809 16.963 23.9895C16.6654 24.3815 16.225 24.64 15.7377 24.7087C15.222 24.7828 11.4543 24.7828 10.9384 24.7087C10.4512 24.64 10.0108 24.3815 9.71336 23.9895C9.63189 23.8802 9.55194 23.7642 9.47585 23.6447C9.38341 23.4993 9.33442 23.3306 9.33465 23.1583C9.33451 23.1279 9.34075 23.0978 9.35295 23.07C9.36515 23.0421 9.38305 23.0172 9.40549 22.9967C9.42793 22.9762 9.45442 22.9607 9.48324 22.9511C9.51206 22.9414 9.54258 22.938 9.57282 22.9409C10.6989 23.0495 15.9773 23.0495 17.1034 22.9409C17.1337 22.938 17.1642 22.9414 17.193 22.9511C17.2218 22.9607 17.2483 22.9762 17.2708 22.9967C17.2932 23.0172 17.3111 23.0421 17.3233 23.07C17.3355 23.0978 17.3417 23.1279 17.3416 23.1583C17.3418 23.3305 17.2927 23.4993 17.2003 23.6446H17.2005Z" fill="#444444"/>
<path d="M18.8482 22.297V22.854C18.8473 23.0868 18.9168 23.3144 19.0476 23.507C19.1784 23.6995 19.3643 23.8481 19.581 23.9331C19.947 24.0716 20.2787 24.2876 20.5534 24.5663C20.677 24.6985 20.8265 24.8038 20.9926 24.8756C21.1586 24.9475 21.3377 24.9843 21.5187 24.9838C21.5424 24.9838 21.5662 24.9831 21.59 24.9818C22.1341 24.9552 22.6708 24.8447 23.1811 24.6543C23.4446 24.5497 23.6705 24.3682 23.8295 24.1334C23.9885 23.8987 24.0731 23.6215 24.0725 23.338V22.4884C24.0736 22.3196 24.0367 22.1528 23.9644 22.0003C23.8694 21.802 23.7399 21.6222 23.5818 21.4694C23.4341 21.3286 23.2517 21.2295 23.0532 21.1823C22.8546 21.1351 22.6471 21.1416 22.4519 21.201C21.3745 21.5155 20.2771 21.757 19.1672 21.9239C19.0783 21.938 18.9974 21.9832 18.9389 22.0516C18.8804 22.12 18.8482 22.207 18.8482 22.297V22.297ZM19.6042 22.6183C20.6402 22.4513 21.6646 22.2194 22.6714 21.924C22.7382 21.9036 22.8092 21.9012 22.8772 21.9171C22.9452 21.9331 23.0077 21.9668 23.0585 22.0148C23.151 22.1046 23.2268 22.2102 23.2823 22.3267C23.3055 22.3774 23.3171 22.4326 23.3164 22.4884V23.338C23.3176 23.4689 23.2795 23.5971 23.207 23.706C23.1344 23.8148 23.0308 23.8994 22.9095 23.9486C22.4734 24.1106 22.0149 24.2044 21.5502 24.2268C21.4677 24.2317 21.3852 24.2184 21.3085 24.188C21.2317 24.1575 21.1626 24.1106 21.1059 24.0506C20.7547 23.6901 20.3293 23.4103 19.8592 23.2306C19.7838 23.2009 19.719 23.1491 19.6735 23.082C19.6279 23.0148 19.6037 22.9355 19.6041 22.8544L19.6042 22.6183Z" fill="#444444"/>
<path d="M19.0973 18.4788C19.1021 18.3786 19.0669 18.2807 18.9994 18.2065C18.932 18.1324 18.8379 18.088 18.7377 18.0832L18.6036 18.0768C18.554 18.0745 18.5044 18.0821 18.4578 18.099C18.4111 18.1159 18.3681 18.1418 18.3315 18.1752C18.2948 18.2087 18.2651 18.2491 18.244 18.294C18.2229 18.339 18.2109 18.3877 18.2086 18.4373C18.2064 18.4869 18.2139 18.5364 18.2308 18.5831C18.2477 18.6298 18.2736 18.6727 18.3071 18.7094C18.3406 18.7461 18.3809 18.7758 18.4259 18.7969C18.4708 18.818 18.5195 18.83 18.5691 18.8322L18.7014 18.8384H18.7198C18.8168 18.8384 18.9102 18.801 18.9805 18.7341C19.0508 18.6671 19.0926 18.5757 19.0973 18.4788V18.4788Z" fill="#444444"/>
<path d="M5.58562 19.0026C8.89892 18.687 13.2888 18.7425 13.3326 18.7433H13.3429C13.3594 18.7433 15.01 18.7216 17.0314 18.7765H17.0418C17.142 18.7779 17.2387 18.7393 17.3106 18.6694C17.3824 18.5994 17.4235 18.5038 17.4249 18.4035C17.4262 18.3033 17.3877 18.2066 17.3177 18.1347C17.2478 18.0629 17.1522 18.0218 17.0519 18.0204C15.0706 17.9663 13.4415 17.9855 13.3376 17.9868C13.1722 17.9846 9.3229 17.9408 6.11838 18.1968C6.42157 17.4407 7.02947 16.0505 7.81014 14.9058C7.95721 14.6912 8.17669 14.5369 8.42834 14.471C9.25476 14.2523 11.3875 13.7433 13.338 13.7433C15.2884 13.7433 17.4209 14.2519 18.2476 14.471C18.4992 14.5369 18.7186 14.6913 18.8657 14.9058C19.6448 16.0494 20.2532 17.4404 20.5568 18.1967C20.4171 18.1855 20.2749 18.1748 20.1301 18.1645C20.0301 18.1574 19.9314 18.1903 19.8556 18.256C19.7799 18.3217 19.7333 18.4148 19.7262 18.5149C19.7191 18.6149 19.7521 18.7136 19.8178 18.7894C19.8835 18.8651 19.9766 18.9117 20.0766 18.9188C20.4313 18.9438 20.7722 18.972 21.0899 19.0022C21.1019 19.0033 21.1139 19.0039 21.1258 19.0039C21.1862 19.0039 21.2458 18.9894 21.2994 18.9617C21.3531 18.934 21.3993 18.8938 21.4342 18.8445C21.4692 18.7952 21.4918 18.7382 21.5002 18.6784C21.5086 18.6186 21.5025 18.5576 21.4825 18.5006C21.4501 18.4081 20.6737 16.2159 19.4904 14.4799C19.241 14.1152 18.8686 13.8525 18.4413 13.7401C17.3793 13.459 15.3041 12.9875 13.3383 12.9875C11.3726 12.9875 9.29729 13.459 8.23526 13.7401C7.80799 13.8525 7.43556 14.1152 7.18618 14.4799C6.00289 16.2159 5.22647 18.4081 5.19406 18.5006C5.17301 18.5604 5.16733 18.6246 5.17756 18.6871C5.18778 18.7497 5.21358 18.8087 5.25258 18.8587C5.29157 18.9087 5.34251 18.9481 5.40071 18.9732C5.4589 18.9983 5.52249 19.0085 5.58562 19.0026V19.0026Z" fill="#444444"/>
<path d="M30.5524 0.9283C30.5133 0.935578 26.6217 1.64196 25.0015 0.103775C24.9995 0.101979 24.9973 0.100751 24.9952 0.0989549C24.9792 0.0841809 24.962 0.0708055 24.9438 0.0589762C24.9427 0.0583146 24.9416 0.0573695 24.9405 0.0566134C24.9245 0.0466727 24.9078 0.0379528 24.8905 0.030528C24.8875 0.0292048 24.8842 0.0285432 24.881 0.0273146C24.8744 0.0246682 24.8677 0.0226835 24.8609 0.0204152C24.846 0.0154378 24.8308 0.0113663 24.8154 0.00822307C24.8087 0.0068999 24.8022 0.00548221 24.7955 0.00453709C24.7758 0.00148466 24.7559 -3.20867e-05 24.736 5.14508e-07C24.7342 5.14508e-07 24.7325 5.14508e-07 24.7307 5.14508e-07C24.7087 0.000782805 24.6869 0.00347076 24.6654 0.00803406C24.6597 0.00916821 24.6543 0.0108694 24.6487 0.0121926C24.6326 0.0163183 24.6169 0.0214961 24.6015 0.0276926C24.5954 0.0300554 24.5895 0.0324183 24.5835 0.0351591C24.5643 0.0438602 24.5458 0.0542001 24.5283 0.0660646C24.5273 0.0667262 24.5261 0.0671987 24.5251 0.0679548C24.5096 0.0787624 24.495 0.0907039 24.4813 0.103681C22.8643 1.63884 18.9695 0.935389 18.9304 0.928111C18.8758 0.917937 18.8196 0.91991 18.7659 0.933889C18.7122 0.947869 18.6622 0.973512 18.6195 1.009C18.5768 1.04448 18.5424 1.08893 18.5188 1.1392C18.4953 1.18946 18.483 1.24431 18.4831 1.29983V7.28406C18.4778 8.03995 18.616 8.78998 18.8901 9.49442C20.4269 13.3783 24.4999 14.1773 24.6725 14.2095H24.6732C24.6956 14.2137 24.7184 14.2158 24.7412 14.2159C24.7443 14.2159 24.7474 14.2151 24.7507 14.215C24.7702 14.2147 24.7897 14.2129 24.809 14.2096H24.8111C24.9837 14.1775 29.0567 13.3785 30.5934 9.49461C30.8674 8.79008 31.0054 8.03998 30.9999 7.28406V1.29992C30.9999 1.24439 30.9877 1.18954 30.9641 1.13927C30.9405 1.089 30.9061 1.04455 30.8634 1.00907C30.8207 0.973592 30.7707 0.947963 30.7169 0.934003C30.6632 0.920043 30.607 0.918096 30.5524 0.9283V0.9283ZM24.7407 10.9428C24.3487 10.8492 22.4002 10.2943 21.6422 8.3787C21.4988 8.00882 21.4267 7.61509 21.4299 7.21838V3.89911C22.1935 3.9835 23.7529 4.05032 24.7412 3.36927C25.7297 4.04976 27.2892 3.9836 28.0526 3.89854V7.21838C28.0558 7.61509 27.9838 8.00883 27.8403 8.3787C27.086 10.285 25.1323 10.8477 24.7407 10.9428V10.9428ZM19.5928 9.21618C19.3538 8.6003 19.2336 7.94469 19.2388 7.28406V1.74026C20.248 1.87257 22.7213 2.07039 24.3632 1.12394V2.71099C23.5097 3.35509 21.7547 3.20983 21.1214 3.09244C21.0669 3.08222 21.0107 3.08416 20.9569 3.09811C20.9032 3.11206 20.8531 3.13769 20.8104 3.17317C20.7677 3.20865 20.7333 3.25311 20.7097 3.30338C20.6861 3.35366 20.6738 3.40852 20.6738 3.46406V7.21838C20.6705 7.71034 20.7606 8.19846 20.9392 8.65685C21.7426 10.6875 23.6187 11.4123 24.3632 11.6257V13.3494C23.3111 13.0324 20.6887 11.9862 19.5928 9.21618ZM30.2438 7.28406C30.2489 7.94469 30.1288 8.60031 29.8897 9.21618C28.7933 11.9865 26.1712 13.0325 25.1193 13.3493V11.6256C25.8636 11.4123 27.7397 10.6878 28.5434 8.65685C28.722 8.19845 28.812 7.71033 28.8087 7.21838V3.46406C28.8087 3.40856 28.7964 3.35374 28.7728 3.30349C28.7493 3.25325 28.7149 3.20881 28.6722 3.17334C28.6295 3.13787 28.5796 3.11223 28.5258 3.09825C28.4721 3.08427 28.416 3.08229 28.3614 3.09244C27.7282 3.20992 25.9727 3.35462 25.1197 2.70986V1.12366C26.7612 2.07029 29.2344 1.87305 30.2438 1.74026V7.28406Z" fill="#444444"/>
</g>
</svg>
