<svg width="31" height="31" viewBox="0 0 31 31" fill="none" xmlns="http://www.w3.org/2000/svg">
<path d="M3.22715 8.49813C3.9667 8.06145 4.80431 7.81803 5.66271 7.7903C6.61985 7.82819 7.54861 8.12593 8.34938 8.65158C8.59845 8.817 8.92076 8.82325 9.17605 8.6676C10.0709 8.12537 11.0903 7.82287 12.136 7.78927C13.1832 7.82186 14.2043 8.12441 15.1001 8.6676C15.3459 8.81947 15.6563 8.81947 15.902 8.6676C16.7983 8.12435 17.8196 7.8218 18.8672 7.78927C19.9128 7.82322 20.9322 8.1257 21.8271 8.6676C22.0822 8.82428 22.4051 8.81803 22.6538 8.65158C23.4547 8.12619 24.3834 7.82863 25.3405 7.79082C26.1989 7.81854 27.0365 8.06197 27.776 8.49865C28.0277 8.64435 28.3401 8.63494 28.5826 8.47437C28.8301 8.31362 28.9653 8.02669 28.9318 7.73347C28.4508 3.39657 22.552 0 15.5 0C8.44807 0 2.54928 3.39657 2.07136 7.73295C2.03819 8.02597 2.1734 8.31259 2.42063 8.47333C2.66299 8.63395 2.97538 8.64356 3.22715 8.49813ZM9.3481 7.40848C9.69323 4.0207 12.0503 1.34798 14.9834 1.06382V7.44C14.0949 7.00751 13.1225 6.77507 12.1345 6.75903C11.1699 6.77379 10.2198 6.99526 9.3481 7.40848ZM16.0167 7.44V1.06382C18.9498 1.34798 21.3069 4.0207 21.652 7.40848C20.7805 6.99454 19.8303 6.77237 18.8656 6.75697C17.8775 6.77364 16.905 7.0068 16.0167 7.44ZM27.8195 7.3594C26.2051 6.53211 24.2851 6.56135 22.6967 7.43742C22.5249 5.0966 21.3967 2.92982 19.5776 1.44667C23.9145 2.33378 27.1943 4.5911 27.8195 7.35733V7.3594ZM11.4225 1.44667C9.60285 2.9305 8.47467 5.09829 8.3034 7.44C7.48789 7.01155 6.58374 6.7791 5.66271 6.7611C4.80222 6.77845 3.95587 6.98334 3.18271 7.36147C3.80581 4.5911 7.08562 2.33378 11.4225 1.44667Z" fill="#4F4F4F"/>
<path d="M25.8333 21.7H22.2167C21.646 21.7 21.1833 22.1626 21.1833 22.7333V25.3166C21.1833 25.8873 21.646 26.35 22.2167 26.35H25.8333C26.404 26.35 26.8667 25.8873 26.8667 25.3166V22.7333C26.8667 22.1626 26.404 21.7 25.8333 21.7ZM22.2167 22.7333H24.0168L22.9095 25.3166H22.2167V22.7333ZM25.8333 25.3166H24.0333L25.1405 22.7333H25.8333V25.3166Z" fill="#4F4F4F"/>
<path d="M22.7335 18.6H26.3501C26.6355 18.6 26.8668 18.3687 26.8668 18.0833C26.8668 17.798 26.6355 17.5667 26.3501 17.5667H22.7335C22.4481 17.5667 22.2168 17.798 22.2168 18.0833C22.2168 18.3687 22.4481 18.6 22.7335 18.6Z" fill="#4F4F4F"/>
<path d="M11.3668 25.3168C11.6521 25.3168 11.8834 25.0855 11.8834 24.8001C11.8834 24.5148 11.6521 24.2834 11.3668 24.2834C11.0814 24.2834 10.8501 24.5148 10.8501 24.8001C10.8501 25.0855 11.0814 25.3168 11.3668 25.3168Z" fill="#4F4F4F"/>
<path d="M9.29993 18.5999H14.4666C15.0373 18.5999 15.4999 18.1373 15.4999 17.5666V14.6386C15.4999 14.2931 15.3271 13.9705 15.0396 13.7789L12.4563 12.0569C12.1095 11.8248 11.657 11.8248 11.3103 12.0569L8.72695 13.7789C8.43942 13.9705 8.26667 14.2931 8.2666 14.6386V17.5666C8.2666 18.1373 8.72924 18.5999 9.29993 18.5999ZM9.29993 16.0166H11.3666V17.5666H9.29993V16.0166ZM12.3999 17.5666V16.0166H14.4666V17.5666H12.3999ZM14.4666 14.6386V14.9833H12.3999V13.2612L14.4666 14.6386ZM11.3666 13.2612V14.9833H9.29993V14.6386L11.3666 13.2612Z" fill="#4F4F4F"/>
<path d="M5.68335 20.15C5.68335 20.4353 5.91467 20.6666 6.20002 20.6666H17.5667C17.852 20.6666 18.0834 20.4353 18.0834 20.15C18.0834 19.8646 17.852 19.6333 17.5667 19.6333H6.20002C5.91467 19.6333 5.68335 19.8646 5.68335 20.15Z" fill="#4F4F4F"/>
<path d="M30.4833 27.3834H28.9333V17.0501C28.9333 16.1941 28.2394 15.5001 27.3833 15.5001H19.5222L17.6023 12.6998C17.4789 12.5185 17.3183 12.3656 17.1311 12.2513L12.6847 9.5264C12.1934 9.2246 11.5743 9.2246 11.083 9.5264L6.63658 12.2513C6.44962 12.3656 6.28902 12.5183 6.16538 12.6993L2.67375 17.7915C2.56673 17.9438 2.54984 18.1418 2.62955 18.31C2.70926 18.4781 2.87324 18.5904 3.05884 18.604C3.24444 18.6175 3.42299 18.5302 3.52625 18.3753L3.61667 18.2436V27.3834H0.516667C0.23132 27.3834 0 27.6148 0 27.9001C0 28.1854 0.23132 28.4168 0.516667 28.4168H5.8063L3.80267 30.0861C3.66072 30.2043 3.59258 30.3891 3.62391 30.5711C3.65525 30.7531 3.7813 30.9046 3.95458 30.9685C4.12786 31.0323 4.32205 30.9989 4.464 30.8808L7.42037 28.4168H14.9833V30.4834C14.9833 30.7688 15.2147 31.0001 15.5 31.0001C15.7853 31.0001 16.0167 30.7688 16.0167 30.4834V28.4168H23.5796L26.536 30.8808C26.7554 31.0634 27.0814 31.0335 27.264 30.8141C27.4466 30.5947 27.4168 30.2687 27.1973 30.0861L25.1937 28.4168H30.4833C30.7687 28.4168 31 28.1854 31 27.9001C31 27.6148 30.7687 27.3834 30.4833 27.3834ZM27.3833 16.5334C27.6687 16.5334 27.9 16.7648 27.9 17.0501V19.6334H20.15V18.2436L20.2404 18.3753C20.4031 18.6068 20.7216 18.6643 20.955 18.5045C21.1884 18.3447 21.2499 18.0269 21.0929 17.7915L20.2306 16.5334H27.3833ZM19.1167 23.2501V24.8001H17.05V23.2501H19.1167ZM17.05 25.8334H19.1167V27.3834H17.05V25.8334ZM7.01685 13.2831C7.05856 13.2222 7.1126 13.1708 7.17547 13.1322L11.6188 10.4078C11.7792 10.3087 11.9818 10.3087 12.1422 10.4078L16.5886 13.1322C16.6516 13.1709 16.7057 13.2225 16.7472 13.2836L17.561 14.4668H17.05C16.7647 14.4668 16.5333 14.6981 16.5333 14.9834C16.5333 15.2688 16.7647 15.5001 17.05 15.5001H18.2693L19.1167 16.736V17.0501H17.05C16.7647 17.0501 16.5333 17.2814 16.5333 17.5668C16.5333 17.8521 16.7647 18.0834 17.05 18.0834H19.1167V22.2168H16.9064C16.7233 21.8981 16.3842 21.7012 16.0167 21.7001H7.75C7.38248 21.7012 7.04341 21.8981 6.8603 22.2168H4.65V18.0834H6.71667C7.00201 18.0834 7.23333 17.8521 7.23333 17.5668C7.23333 17.2814 7.00201 17.0501 6.71667 17.0501H4.65V16.736L5.49733 15.5001H6.71667C7.00201 15.5001 7.23333 15.2688 7.23333 14.9834C7.23333 14.6981 7.00201 14.4668 6.71667 14.4668H6.20568L7.01685 13.2831ZM13.95 22.7334V27.3834H9.81667V22.7334H13.95ZM4.65 23.2501H6.71667V24.8001H4.65V23.2501ZM4.65 25.8334H6.71667V27.3834H4.65V25.8334ZM7.75 22.7334H8.78333V27.3834H7.75V22.7334ZM14.9833 27.3834V22.7334H16.0167V27.3834H14.9833ZM20.15 27.3834V20.6668H27.9V27.3834H20.15Z" fill="#4F4F4F"/>
</svg>
