<svg width="22" height="27" viewBox="0 0 22 27" fill="none" xmlns="http://www.w3.org/2000/svg">
<path d="M21.6184 20.0916C21.6163 19.996 21.5834 19.9034 21.5245 19.8269C21.4656 19.7503 21.3835 19.6936 21.2898 19.6648C19.6331 19.1548 18.3937 18.6686 17.8024 18.4244C17.7442 18.4004 17.6816 18.3881 17.6184 18.3881C17.5552 18.3881 17.4927 18.4004 17.4345 18.4244C16.8429 18.6688 15.603 19.155 13.9471 19.6648C13.8783 19.6859 13.8154 19.7221 13.7634 19.7707C13.7113 19.8192 13.6715 19.8788 13.647 19.9448C13.3607 19.8234 13.0669 19.7198 12.7671 19.6347C13.3904 19.2244 13.8703 18.6389 14.1431 17.9564C14.4158 17.2739 14.4684 16.5267 14.2938 15.8144C14.1193 15.1021 13.7258 14.4584 13.1658 13.9692C12.6059 13.48 11.9061 13.1684 11.1596 13.076V7.4983C11.847 7.60734 12.4723 7.95046 12.924 8.46647C13.3756 8.98249 13.6242 9.63784 13.6255 10.3157C13.6255 10.4371 13.675 10.5536 13.7633 10.6395C13.8515 10.7254 13.9712 10.7736 14.096 10.7736C14.2208 10.7736 14.3405 10.7254 14.4288 10.6395C14.517 10.5536 14.5666 10.4371 14.5666 10.3157C14.5681 9.56512 14.873 8.84529 15.4154 8.31176C15.9579 7.77824 16.6942 7.47387 17.4654 7.46445C18.2366 7.45503 18.9806 7.74131 19.5366 8.26143C20.0926 8.78154 20.416 9.49369 20.4368 10.244C20.4404 10.3631 20.4915 10.4761 20.5793 10.5592C20.6671 10.6422 20.7847 10.6887 20.9071 10.6888H20.9176C21.042 10.6862 21.1603 10.6356 21.2466 10.5484C21.3328 10.4611 21.3801 10.3441 21.378 10.223C21.3293 7.49549 20.1817 4.89569 18.1824 2.98357C16.1832 1.07144 13.4922 0 10.689 0C7.88587 0 5.19487 1.07144 3.1956 2.98357C1.19633 4.89569 0.0487655 7.49549 6.65898e-05 10.223C-0.00202492 10.3441 0.0452254 10.4611 0.13149 10.5484C0.217755 10.6356 0.336018 10.6862 0.460431 10.6888H0.47065C0.593094 10.6887 0.710688 10.6422 0.798491 10.5592C0.886293 10.4761 0.937397 10.3631 0.940964 10.244C0.959669 9.52028 1.26 8.8305 1.78126 8.31405C2.30252 7.7976 3.00581 7.493 3.74899 7.46183C4.49216 7.43065 5.21978 7.67523 5.78477 8.14611C6.34976 8.61699 6.70997 9.27906 6.79259 9.99849C6.79259 10.0129 6.79448 10.0273 6.79636 10.0417C6.80726 10.1326 6.81238 10.2241 6.81169 10.3157C6.81169 10.4371 6.86127 10.5536 6.94952 10.6395C7.03777 10.7254 7.15746 10.7736 7.28227 10.7736C7.40708 10.7736 7.52677 10.7254 7.61502 10.6395C7.70327 10.5536 7.75285 10.4371 7.75285 10.3157C7.75411 9.63784 8.00272 8.98249 8.45435 8.46647C8.90598 7.95046 9.53127 7.60734 10.2187 7.4983V13.076C9.47238 13.1683 8.77264 13.4796 8.21268 13.9686C7.65271 14.4575 7.2591 15.1009 7.08424 15.813C6.90938 16.5251 6.96158 17.2721 7.23389 17.9546C7.50619 18.6371 7.98568 19.2227 8.60851 19.6334C7.07485 20.0727 5.72824 20.9827 4.76961 22.2278C3.81098 23.4729 3.29172 24.9862 3.28931 26.542C3.28938 26.6635 3.33898 26.7799 3.42722 26.8658C3.51545 26.9517 3.6351 26.9999 3.75989 27H17.6184C17.6486 26.9998 17.6787 26.9968 17.7082 26.9911C17.7204 26.9884 17.7324 26.9851 17.7443 26.9812C17.7585 26.9772 17.773 26.9746 17.787 26.9696C17.7908 26.9681 17.7946 26.9662 17.7983 26.9649L17.8045 26.9623C19.5871 26.2906 20.7673 24.895 21.3116 22.8095C21.5366 21.9207 21.6397 21.0068 21.6184 20.0916ZM19.9173 7.35411C19.1117 6.73622 18.0879 6.45328 17.0689 6.56695C16.0498 6.68063 15.1183 7.18171 14.4773 7.96097C14.2942 5.89806 13.7459 2.81587 12.1277 1.01937C13.8953 1.28592 15.5548 2.01665 16.9274 3.13289C18.3 4.24912 19.3337 5.70858 19.9173 7.35411ZM3.87498 6.54287C2.99905 6.53939 2.14786 6.82542 1.46076 7.35411C2.04431 5.70858 3.07804 4.24912 4.45064 3.13289C5.82324 2.01665 7.48272 1.28592 9.25038 1.01937C7.63427 2.81378 7.08516 5.89048 6.90123 7.95417C6.53822 7.51269 6.07763 7.1565 5.55371 6.91208C5.02978 6.66766 4.45599 6.54128 3.87498 6.54235V6.54287ZM7.87413 7.7244C8.10566 5.47229 8.77281 2.22157 10.689 0.990321C12.605 2.22236 13.2724 5.47308 13.5039 7.72466C13.1421 7.35153 12.7059 7.05425 12.2218 6.85106C11.7378 6.64788 11.2162 6.54307 10.689 6.54307C10.1619 6.54307 9.64027 6.64788 9.15623 6.85106C8.67218 7.05425 8.2359 7.35153 7.87413 7.72466V7.7244ZM7.92361 16.6509C7.9235 16.1186 8.0856 15.5983 8.3894 15.1556C8.6932 14.713 9.12507 14.368 9.63037 14.1642C10.1357 13.9604 10.6917 13.907 11.2282 14.0108C11.7647 14.1146 12.2575 14.3709 12.6443 14.7472C13.0311 15.1236 13.2945 15.6031 13.4013 16.1252C13.508 16.6472 13.4533 17.1884 13.244 17.6802C13.0347 18.172 12.6802 18.5923 12.2255 18.888C11.7707 19.1838 11.236 19.3416 10.689 19.3416C9.95594 19.3405 9.25321 19.0566 8.73484 18.5522C8.21647 18.0477 7.92475 17.3638 7.92361 16.6504V16.6509ZM10.689 20.2575C11.7139 20.2582 12.7239 20.4962 13.6357 20.9518C13.6718 21.5786 13.7687 22.2007 13.925 22.8098C14.2934 24.2203 14.9544 25.315 15.8947 26.0843H4.24714C4.36818 24.5016 5.09917 23.0218 6.29372 21.9413C7.48827 20.8609 9.05818 20.2594 10.689 20.2575ZM20.3994 22.5848C19.9506 24.3028 19.0154 25.4673 17.6184 26.049C16.2201 25.4673 15.2859 24.3028 14.8374 22.5848C14.6601 21.8812 14.5665 21.1601 14.5586 20.4358C15.9375 20 17.0056 19.5908 17.6184 19.3427C18.2307 19.5905 19.2988 19.9998 20.6783 20.4358C20.6703 21.1601 20.5767 21.8812 20.3994 22.5848Z" fill="#333D44"/>
<path d="M16.6424 22.1111C16.5539 22.0303 16.4368 21.9858 16.3155 21.987C16.1941 21.9882 16.0779 22.0349 15.9912 22.1175C15.9044 22.2001 15.8538 22.3121 15.8499 22.4301C15.8459 22.5482 15.889 22.6631 15.9701 22.751L16.843 23.6213C16.8868 23.665 16.9391 23.6997 16.9969 23.7233C17.0547 23.747 17.1167 23.7592 17.1794 23.7593C17.242 23.7593 17.304 23.7471 17.3617 23.7235C17.4194 23.6999 17.4717 23.6654 17.5155 23.6219L19.2664 21.8814C19.3106 21.8386 19.3457 21.7877 19.3696 21.7317C19.3934 21.6756 19.4056 21.6155 19.4054 21.5548C19.4052 21.4942 19.3926 21.4341 19.3684 21.3782C19.3441 21.3223 19.3087 21.2717 19.2641 21.2292C19.2196 21.1867 19.1668 21.1533 19.1089 21.1309C19.051 21.1084 18.989 21.0974 18.9267 21.0985C18.8644 21.0995 18.8028 21.1126 18.7457 21.137C18.6886 21.1614 18.6371 21.1965 18.5941 21.2405L17.1799 22.6463L16.6424 22.1111Z" fill="#333D44"/>
</svg>
