<svg width="31" height="31" viewBox="0 0 31 31" fill="none" xmlns="http://www.w3.org/2000/svg">
<path d="M30.4191 2.57832L30.29 2.59433C29.1479 2.73912 27.9877 2.59344 26.9169 2.17078C25.8461 1.74812 24.8992 1.06214 24.1639 0.176335C24.1136 0.120813 24.0523 0.0764358 23.9839 0.0460639C23.9154 0.015692 23.8414 0 23.7665 0C23.6917 0 23.6176 0.015692 23.5492 0.0460639C23.4808 0.0764358 23.4194 0.120813 23.3692 0.176335C22.6337 1.06191 21.6868 1.74773 20.616 2.17037C19.5452 2.59301 18.3852 2.73883 17.2431 2.59433L17.1139 2.57832C17.0413 2.56967 16.9676 2.57633 16.8977 2.59786C16.8277 2.6194 16.7631 2.65533 16.7078 2.70335C16.6529 2.75186 16.6089 2.8115 16.5788 2.87831C16.5487 2.94512 16.5332 3.01757 16.5332 3.09085V8.6011C16.533 9.85416 16.8367 11.0886 17.4182 12.1985C17.9997 13.3085 18.8416 14.2609 19.8719 14.9742L23.4726 17.4666C23.5589 17.5264 23.6615 17.5584 23.7665 17.5584C23.8716 17.5584 23.9741 17.5264 24.0605 17.4666L27.6612 14.9742C28.6914 14.2609 29.5334 13.3085 30.1149 12.1985C30.6964 11.0886 31 9.85416 30.9999 8.6011V3.09085C30.9999 3.01757 30.9844 2.94512 30.9542 2.87831C30.9241 2.8115 30.8802 2.75186 30.8252 2.70335C30.7701 2.65522 30.7054 2.61922 30.6355 2.59768C30.5655 2.57614 30.4918 2.56954 30.4191 2.57832ZM29.9665 8.6011C29.9666 9.68695 29.7034 10.7566 29.1995 11.7185C28.6956 12.6803 27.966 13.5057 27.0732 14.1238L23.7665 16.4126L20.4599 14.1238C19.5671 13.5057 18.8375 12.6803 18.3336 11.7185C17.8297 10.7566 17.5665 9.68695 17.5665 8.6011V3.6628C18.7112 3.7443 19.8599 3.57335 20.9312 3.16204C22.0026 2.75073 22.9705 2.1091 23.7665 1.28252C24.563 2.10859 25.531 2.74987 26.6022 3.16114C27.6735 3.57241 28.8219 3.74366 29.9665 3.6628V8.6011Z" fill="#444444"/>
<path d="M28.472 4.66197C26.8775 4.4905 25.3589 3.89142 24.0767 2.92804C23.9873 2.86097 23.8785 2.82471 23.7667 2.82471C23.6549 2.82471 23.5462 2.86097 23.4567 2.92804C22.1747 3.89133 20.6563 4.49041 19.062 4.66197C18.9353 4.67561 18.8181 4.73559 18.7329 4.83038C18.6477 4.92518 18.6006 5.04811 18.6006 5.17554V8.60052C18.6005 9.51938 18.8233 10.4246 19.2497 11.2385C19.6761 12.0524 20.2936 12.7508 21.0491 13.2738L23.4733 14.9519C23.5597 15.0117 23.6622 15.0437 23.7673 15.0437C23.8723 15.0437 23.9749 15.0117 24.0612 14.9519L26.486 13.2738C27.2413 12.7507 27.8585 12.0522 28.2847 11.2383C28.711 10.4244 28.9336 9.51929 28.9334 8.60052V5.17554C28.9334 5.04811 28.8862 4.92518 28.8011 4.83038C28.7159 4.73559 28.5987 4.67561 28.472 4.66197ZM27.9001 8.60052C27.9001 9.35226 27.7179 10.0928 27.369 10.7587C27.0201 11.4246 26.515 11.9959 25.897 12.4239L23.7667 13.8989L21.637 12.4239C21.0189 11.996 20.5137 11.4247 20.1647 10.7588C19.8157 10.0929 19.6334 9.35231 19.6334 8.60052V5.62866C21.1182 5.398 22.5314 4.83379 23.7667 3.97842C25.0021 4.83379 26.4153 5.398 27.9001 5.62866V8.60052Z" fill="#444444"/>
<path d="M21.4935 9.39428L20.8735 10.2209L22.9402 11.7709C23.0486 11.8522 23.1845 11.8876 23.3187 11.8696C23.4529 11.8517 23.5747 11.7817 23.6579 11.6748L27.2745 7.02485L26.4592 6.39038L23.1526 10.6394L21.4935 9.39428Z" fill="#444444"/>
<path d="M8.78356 15.491C7.45513 15.491 6.15653 15.8849 5.05198 16.6229C3.94743 17.361 3.08654 18.41 2.57817 19.6373C2.0698 20.8646 1.93679 22.2151 2.19596 23.518C2.45512 24.8209 3.09482 26.0177 4.03416 26.957C4.97351 27.8964 6.1703 28.5361 7.47321 28.7952C8.77611 29.0544 10.1266 28.9214 11.3539 28.413C12.5812 27.9047 13.6302 27.0438 14.3683 25.9392C15.1063 24.8347 15.5002 23.5361 15.5002 22.2076C15.4982 20.4269 14.7899 18.7197 13.5307 17.4605C12.2715 16.2013 10.5643 15.493 8.78356 15.491ZM9.30023 16.5506C10.5631 16.6663 11.7506 17.2029 12.672 18.0743H9.30023V16.5506ZM9.8169 22.2076C9.8169 22.412 9.75629 22.6118 9.64275 22.7817C9.5292 22.9517 9.36782 23.0841 9.179 23.1623C8.99019 23.2405 8.78242 23.261 8.58197 23.2211C8.38152 23.1812 8.1974 23.0828 8.05289 22.9383C7.90837 22.7938 7.80996 22.6097 7.77009 22.4092C7.73021 22.2088 7.75068 22.001 7.82889 21.8122C7.9071 21.6234 8.03954 21.462 8.20947 21.3484C8.37941 21.2349 8.57919 21.1743 8.78356 21.1743C9.05762 21.1743 9.32045 21.2832 9.51424 21.477C9.70803 21.6707 9.8169 21.9336 9.8169 22.2076ZM8.78356 27.891C7.3261 27.8835 5.92721 27.3163 4.87601 26.3068C3.82481 25.2972 3.20165 23.9223 3.13532 22.4664C3.06898 21.0104 3.56455 19.5846 4.51959 18.4836C5.47463 17.3826 6.81615 16.6906 8.2669 16.5506V20.2143C7.91433 20.3047 7.59194 20.4867 7.33248 20.742C7.07301 20.9972 6.88571 21.3166 6.78958 21.6676C6.69346 22.0186 6.69194 22.3889 6.78518 22.7407C6.87842 23.0925 7.0631 23.4134 7.32046 23.6707C7.57782 23.9281 7.8987 24.1128 8.25052 24.206C8.60234 24.2993 8.97256 24.2977 9.3236 24.2016C9.67464 24.1055 9.994 23.9182 10.2492 23.6587C10.5045 23.3993 10.6865 23.0769 10.7769 22.7243H14.4405C14.3106 24.1354 13.6586 25.4471 12.6123 26.4028C11.5659 27.3584 10.2006 27.8891 8.78356 27.891ZM14.4405 21.691H10.7769C10.6845 21.3357 10.4989 21.0115 10.2393 20.7519C9.97971 20.4923 9.65552 20.3067 9.30023 20.2143V19.1076H13.541C14.0482 19.8819 14.3571 20.7691 14.4405 21.691Z" fill="#444444"/>
<path d="M30.4833 22.7241H25.8333V18.0741H24.8V22.7241H17.5403C17.5506 22.5521 17.5667 22.3821 17.5667 22.2074C17.5646 21.1477 17.3696 20.0973 16.9911 19.1074H21.7C21.837 19.1074 21.9684 19.053 22.0653 18.9561C22.1622 18.8592 22.2167 18.7278 22.2167 18.5908V17.5574H21.1833V18.0741H16.5292C15.7052 16.5378 14.4452 15.2795 12.9079 14.4574H17.05V13.4241H11.3667V10.8408H15.5V9.80744H13.4333V8.77411H15.5V7.74077H12.9167C12.7796 7.74077 12.6482 7.79521 12.5513 7.8921C12.4544 7.98899 12.4 8.12041 12.4 8.25744V9.80744H11.3667V4.64077C11.3667 4.50374 11.3122 4.37233 11.2153 4.27543C11.1184 4.17854 10.987 4.1241 10.85 4.1241H9.3V3.09077C9.3 2.95374 9.24557 2.82233 9.14867 2.72543C9.05178 2.62854 8.92036 2.5741 8.78333 2.5741H5.68333V2.05744C5.68333 1.92041 5.6289 1.78899 5.532 1.6921C5.43511 1.59521 5.3037 1.54077 5.16667 1.54077H0.516667C0.379638 1.54077 0.248222 1.59521 0.151328 1.6921C0.0544343 1.78899 0 1.92041 0 2.05744V4.1241C0 4.26113 0.0544343 4.39255 0.151328 4.48944C0.248222 4.58634 0.379638 4.64077 0.516667 4.64077H5.16667C5.3037 4.64077 5.43511 4.58634 5.532 4.48944C5.6289 4.39255 5.68333 4.26113 5.68333 4.1241V3.60744H8.26667V13.4505C6.62136 13.547 5.03647 14.1048 3.69339 15.06C2.3503 16.0153 1.30328 17.3293 0.672166 18.8518C0.0410494 20.3743 -0.148669 22.0438 0.124725 23.6691C0.398118 25.2944 1.12358 26.8099 2.21807 28.0421C3.31257 29.2744 4.73188 30.1736 6.31358 30.6368C7.89527 31.1001 9.57543 31.1087 11.1618 30.6616C12.7481 30.2145 14.1765 29.3299 15.2836 28.1089C16.3906 26.8879 17.1315 25.3799 17.4215 23.7574H24.8V25.3074C24.7995 25.6437 24.717 25.9747 24.5596 26.2718C24.4022 26.5689 24.1747 26.8231 23.8969 27.0124C23.6788 26.2693 23.1908 25.6346 22.5287 25.2329C21.8666 24.8312 21.0782 24.6916 20.3184 24.8414C19.5586 24.9912 18.8823 25.4197 18.4222 26.0427C17.9621 26.6656 17.7516 27.4381 17.832 28.2084C17.9123 28.9786 18.2777 29.691 18.8564 30.2056C19.4352 30.7203 20.1854 30.9999 20.9597 30.9897C21.7341 30.9795 22.4767 30.6802 23.0416 30.1505C23.6066 29.6208 23.9531 28.899 24.0131 28.1269C24.4741 27.9167 24.8766 27.597 25.1858 27.1956C25.4949 26.7943 25.7013 26.3234 25.7868 25.8241H30.4833C30.6204 25.8241 30.7518 25.7697 30.8487 25.6728C30.9456 25.5759 31 25.4445 31 25.3074V23.2408C31 23.1037 30.9456 22.9723 30.8487 22.8754C30.7518 22.7785 30.6204 22.7241 30.4833 22.7241ZM4.65 3.60744H1.03333V2.5741H4.65V3.60744ZM9.3 5.15744H10.3333V9.80744H9.3V5.15744ZM9.3 10.8408H10.3333V13.4241H9.3V10.8408ZM8.78333 29.9574C7.25053 29.9574 5.75214 29.5029 4.47766 28.6513C3.20318 27.7997 2.20985 26.5894 1.62327 25.1732C1.03669 23.7571 0.883212 22.1988 1.18225 20.6955C1.48128 19.1921 2.2194 17.8112 3.30326 16.7274C4.38711 15.6435 5.76803 14.9054 7.27138 14.6064C8.77474 14.3073 10.333 14.4608 11.7491 15.0474C13.1653 15.634 14.3756 16.6273 15.2272 17.9018C16.0788 19.1763 16.5333 20.6746 16.5333 22.2074C16.531 24.2622 15.7137 26.232 14.2608 27.6849C12.8079 29.1379 10.838 29.9551 8.78333 29.9574ZM20.925 29.9574C20.5389 29.9591 20.1601 29.8525 19.8314 29.6498C19.5028 29.4471 19.2375 29.1564 19.0657 28.8106C18.8938 28.4649 18.8223 28.0779 18.8591 27.6936C18.8959 27.3092 19.0397 26.9429 19.2741 26.6361C19.5086 26.3293 19.8242 26.0943 20.1854 25.9577C20.5465 25.8211 20.9387 25.7885 21.3175 25.8634C21.6963 25.9384 22.0465 26.1179 22.3284 26.3817C22.6103 26.6456 22.8127 26.9831 22.9126 27.356C22.8527 27.3612 22.7948 27.3741 22.7333 27.3741H20.6667V28.4074H22.7333C22.7969 28.4074 22.8589 28.4018 22.9214 28.3981C22.8088 28.8427 22.5515 29.2372 22.1901 29.5195C21.8287 29.8018 21.3836 29.9559 20.925 29.9574ZM29.9667 24.7908H25.8333V23.7574H29.9667V24.7908Z" fill="#444444"/>
</svg>
