<svg width="14" height="7" viewBox="0 0 14 7" fill="none" xmlns="http://www.w3.org/2000/svg">
<path d="M13.137 0.15582C13.0348 0.0559252 12.8975 4.72223e-09 12.7545 6.42704e-09C12.6115 8.13186e-09 12.4742 0.0559252 12.372 0.15582L6.64668 5.7368L0.922535 0.15582C0.820263 0.0559253 0.682972 1.50379e-07 0.540009 1.52083e-07C0.397046 1.53788e-07 0.259754 0.0559253 0.157483 0.15582C0.107613 0.204376 0.067976 0.26243 0.0409107 0.326556C0.0138464 0.390682 -9.63156e-05 0.45958 -9.63148e-05 0.529183C-9.6314e-05 0.598787 0.0138464 0.667685 0.0409107 0.731811C0.067976 0.795937 0.107613 0.853991 0.157483 0.902547L6.24698 6.83742C6.35391 6.94166 6.49734 7 6.64668 7C6.79602 7 6.93945 6.94166 7.04639 6.83742L13.1359 0.902547C13.1857 0.853991 13.2254 0.795937 13.2524 0.731811C13.2795 0.667685 13.2935 0.598787 13.2935 0.529183C13.2935 0.45958 13.2795 0.390682 13.2524 0.326556C13.2254 0.26243 13.1857 0.204376 13.1359 0.15582L13.137 0.15582Z" fill="black"/>
</svg>
