<svg width="91" height="91" viewBox="0 0 91 91" fill="none" xmlns="http://www.w3.org/2000/svg">
<rect width="91" height="91" fill="white"/>
<rect x="0.5" y="0.5" width="90" height="90" stroke="#C2D1D9"/>
<rect x="28.1973" y="30.7605" width="35.8873" height="29.5543" rx="4" fill="white"/>
<path fill-rule="evenodd" clip-rule="evenodd" d="M61.9736 30.7605H30.3083C29.1424 30.7605 28.1973 31.7056 28.1973 32.8715V58.2037C28.1973 59.3696 29.1424 60.3148 30.3083 60.3148H61.9736C63.1395 60.3148 64.0846 59.3696 64.0846 58.2037V32.8715C64.0846 31.7056 63.1395 30.7605 61.9736 30.7605ZM30.3083 58.2037V32.8715H61.9736V58.2037H30.3083Z" fill="#C2D1D9"/>
<path fill-rule="evenodd" clip-rule="evenodd" d="M34.0027 39.4684C34.0027 41.6544 35.7748 43.4266 37.9608 43.4266C40.1469 43.4266 41.919 41.6544 41.919 39.4684C41.919 37.2824 40.1469 35.5103 37.9608 35.5103C35.7748 35.5103 34.0027 37.2824 34.0027 39.4684ZM39.808 39.4684C39.808 40.4886 38.981 41.3156 37.9608 41.3156C36.9407 41.3156 36.1137 40.4886 36.1137 39.4684C36.1137 38.4483 36.9407 37.6213 37.9608 37.6213C38.981 37.6213 39.808 38.4483 39.808 39.4684Z" fill="#C2D1D9"/>
<path d="M35.8013 55.7868C35.3873 56.1972 34.719 56.1943 34.3086 55.7804C33.8982 55.3664 33.9011 54.6981 34.3151 54.2877L42.9963 45.6812L47.8893 49.9371C48.3291 50.3196 48.3755 50.9863 47.993 51.4262C47.6104 51.866 46.9437 51.9124 46.5038 51.5299L43.0902 48.5607L35.8013 55.7868Z" fill="#C2D1D9"/>
<path d="M43.7208 55.7835C43.3087 56.1957 42.6404 56.1958 42.2281 55.7836C41.8159 55.3714 41.8159 54.7031 42.2281 54.2909L56.12 40.3977L63.7253 47.0708C64.1635 47.4553 64.207 48.1222 63.8225 48.5604C63.4381 48.9986 62.7712 49.0421 62.333 48.6576L56.2143 43.2889L43.7208 55.7835Z" fill="#C2D1D9"/>
</svg>
