<svg width="31" height="28" viewBox="0 0 31 28" fill="none" xmlns="http://www.w3.org/2000/svg">
<path d="M0.605469 26.6522H5.8125C6.14684 26.6522 6.41797 26.3811 6.41797 26.0467V25.455C8.37527 25.5445 9.67176 26.0629 11.0368 26.6089C12.5784 27.2256 14.1724 27.8631 16.7109 27.8631C17.826 27.8631 19.481 27.4881 21.6301 26.7486C21.9463 26.6398 22.1144 26.2953 22.0056 25.9791C21.8967 25.6629 21.5521 25.4948 21.236 25.6036C19.2141 26.2994 17.6916 26.6522 16.7109 26.6522C14.4057 26.6522 12.9878 26.085 11.4866 25.4845C10.0714 24.9185 8.61152 24.3351 6.41797 24.2432V18.0916C6.80607 17.9911 7.19709 17.8132 7.60287 17.628C8.79637 17.0833 10.1491 16.4658 12.0032 17.5087L14.9261 19.153C15.1973 19.3058 15.5054 19.3866 15.8173 19.3866H19.7383C20.406 19.3866 20.9492 19.9298 20.9492 20.5975C20.9492 21.0934 20.6389 21.5469 20.1751 21.7266C20.0364 21.7809 19.8895 21.8084 19.7383 21.8084H13.5831C13.2487 21.8084 12.9776 22.0795 12.9776 22.4139C12.9776 22.7483 13.2487 23.0194 13.5831 23.0194H19.7383C20.0327 23.0194 20.3201 22.9664 20.5911 22.8635C20.596 22.8619 20.6009 22.8607 20.6057 22.8589C20.6057 22.8589 28.1367 20.075 28.1399 20.0738C28.2796 20.0195 28.427 19.992 28.5781 19.992C29.2458 19.992 29.7891 20.5352 29.7891 21.2029C29.7891 21.6687 29.5169 22.0988 29.0971 22.2977C28.9935 22.3477 28.8897 22.398 28.6894 22.4934L28.5142 22.1431C28.3646 21.844 28.0007 21.7228 27.7019 21.8723C27.4028 22.0219 27.2816 22.3856 27.4311 22.6847L27.5919 23.0063C27.1955 23.1882 26.745 23.3916 26.2524 23.6084C25.9463 23.7431 25.8074 24.1004 25.9422 24.4064C26.0771 24.713 26.4346 24.8512 26.7402 24.7167C27.9313 24.1925 28.7195 23.8207 29.6142 23.3928C30.456 22.9938 31 22.1343 31 21.203C31 19.8675 29.9135 18.7811 28.5781 18.7811C28.2782 18.7811 27.9849 18.8356 27.7063 18.9432L22.1243 21.0065C22.1476 20.8727 22.1602 20.736 22.1602 20.5975C22.1602 19.2621 21.0737 18.1756 19.7383 18.1756H15.8173C15.7132 18.1756 15.6106 18.1488 15.5202 18.0978L12.597 16.4533C10.2063 15.1087 8.41099 15.9281 7.10015 16.5263C6.58478 16.7615 6.13976 16.9647 5.8125 16.9647H0.605469C0.271129 16.9647 0 17.2358 0 17.5702V26.0467C0 26.3811 0.271129 26.6522 0.605469 26.6522ZM1.21094 18.1756H5.20703V25.4412H1.21094V18.1756Z" fill="#444444"/>
<path d="M20.0182 15.654C20.1192 15.7205 20.235 15.7537 20.351 15.7537C20.4669 15.7537 20.5828 15.7205 20.6838 15.654C29.5652 9.81059 29.8578 5.48688 29.2417 3.42968C28.5674 1.17806 26.3902 0 24.5881 0C22.4593 0 21.0524 1.21657 20.3511 2.02747C19.6498 1.21657 18.243 0 16.1146 0C14.3144 0 12.1386 1.18006 11.4631 3.43555C10.8474 5.49136 11.1401 9.81247 20.0182 15.654ZM12.6231 3.78297C13.1234 2.11242 14.7954 1.211 16.1145 1.211C18.5293 1.211 19.7743 3.25397 19.8292 3.34606C19.938 3.53091 20.1365 3.64438 20.351 3.64438C20.5661 3.64438 20.765 3.53025 20.8736 3.34461C20.8861 3.32324 22.1499 1.211 24.5881 1.211C25.9091 1.211 27.5825 2.11036 28.0817 3.7771C28.4944 5.15526 28.5498 8.92709 20.351 14.4215C12.1555 8.92903 12.2107 5.16005 12.6231 3.78297Z" fill="#444444"/>
<path d="M17.9219 8.48804H19.7383V10.3044C19.7383 10.6388 20.0094 10.9099 20.3438 10.9099C20.6781 10.9099 20.9492 10.6388 20.9492 10.3044V8.48804H22.7656C23.1 8.48804 23.3711 8.21697 23.3711 7.88257C23.3711 7.54817 23.1 7.2771 22.7656 7.2771H20.9492V5.46069C20.9492 5.12629 20.6781 4.85522 20.3438 4.85522C20.0094 4.85522 19.7383 5.12629 19.7383 5.46069V7.2771H17.9219C17.5875 7.2771 17.3164 7.54817 17.3164 7.88257C17.3164 8.21697 17.5875 8.48804 17.9219 8.48804Z" fill="#444444"/>
<path d="M23.9766 25.8044C24.311 25.8044 24.582 25.5334 24.582 25.199C24.582 24.8646 24.311 24.5935 23.9766 24.5935C23.6422 24.5935 23.3711 24.8646 23.3711 25.199C23.3711 25.5334 23.6422 25.8044 23.9766 25.8044Z" fill="#444444"/>
</svg>
