<svg width="31" height="33" viewBox="0 0 31 33" fill="none" xmlns="http://www.w3.org/2000/svg">
<path d="M24.4056 19.8449V16.8101C24.4056 16.374 24.0289 16.0193 23.566 16.0193H20.344C19.881 16.0193 19.5044 16.374 19.5044 16.8101V19.8449C19.5044 20.2809 19.881 20.6356 20.344 20.6356H23.5661C24.029 20.6356 24.4056 20.2809 24.4056 19.8449ZM23.3962 16.9701V17.8521H20.5138V16.9701H23.3962ZM20.5138 19.6849V18.8028H23.3962V19.6849H20.5138Z" fill="#444444"/>
<path d="M9.03844 16.0193H5.81635C5.35344 16.0193 4.97681 16.374 4.97681 16.8101V19.8449C4.97681 20.2809 5.35344 20.6356 5.81635 20.6356H9.03844C9.50142 20.6356 9.87805 20.2809 9.87805 19.8449V16.8101C9.87805 16.374 9.50142 16.0193 9.03844 16.0193ZM8.86867 16.97V17.8521H5.98626V16.97H8.86867ZM5.98626 19.6848V18.8028H8.86867V19.6848H5.98626Z" fill="#444444"/>
<path d="M30.4103 22.662L26.5508 20.5634C26.5232 20.5484 26.495 20.5349 26.4664 20.5222V12.7862H28.5263C28.9091 12.7862 29.239 12.5537 29.347 12.2078C29.4549 11.8617 29.3112 11.4981 28.9892 11.3029L26.4664 9.77376V7.46773C26.4664 7.20515 26.2405 6.99238 25.9618 6.99238C25.683 6.99238 25.4571 7.20515 25.4571 7.46773V9.16189L21.3914 6.6976V3.802H25.4571V5.39602C25.4571 5.6586 25.683 5.87137 25.9618 5.87137C26.2405 5.87137 26.4664 5.6586 26.4664 5.39602V3.802H26.6137C27.0854 3.802 27.4692 3.44054 27.4692 2.99624V0.805755C27.4692 0.361458 27.0854 0 26.6137 0H20.2349C19.7632 0 19.3794 0.361458 19.3794 0.805755V2.99631C19.3794 3.4406 19.7632 3.80206 20.2349 3.80206H20.3821V6.08578L15.3441 3.03212C14.9474 2.79172 14.435 2.79165 14.0385 3.03212L8.80278 6.20557C8.5684 6.34761 8.50064 6.64176 8.65151 6.86251C8.80238 7.08327 9.11455 7.14715 9.34899 7.00499L14.5848 3.83153C14.6495 3.79224 14.7331 3.79237 14.7978 3.83153L28.0027 11.8355H1.37975L7.49912 8.12638C7.7335 7.98434 7.80127 7.6902 7.6504 7.46944C7.49959 7.24875 7.18736 7.1848 6.95291 7.32696L0.393241 11.3029C0.0712469 11.4981 -0.0724898 11.8617 0.0355146 12.2077C0.143519 12.5537 0.473387 12.7862 0.856281 12.7862H2.91604V25.7586C2.91604 26.3704 3.44455 26.8682 4.09426 26.8682H21.5075C22.1507 28.7795 23.3048 30.5143 24.8991 31.9235L25.1556 32.1503C25.3817 32.35 25.6717 32.45 25.9618 32.45C26.2519 32.45 26.542 32.3501 26.768 32.1503L27.0246 31.9236C29.4753 29.7573 30.887 26.8221 30.9993 23.6588C31.0139 23.2494 30.7882 22.8675 30.4103 22.662ZM20.3888 0.950706H26.4598V2.85129H20.3888V0.950706ZM18.5633 25.9175V23.4734C18.5633 23.2108 18.3374 22.998 18.0587 22.998C17.7799 22.998 17.554 23.2108 17.554 23.4734V25.9175H11.8285V17.7562C11.8285 17.6705 11.9025 17.6008 11.9935 17.6008H17.389C17.48 17.6008 17.554 17.6705 17.554 17.7562V21.4017C17.554 21.6642 17.7799 21.877 18.0587 21.877C18.3374 21.877 18.5633 21.6642 18.5633 21.4017V17.7562C18.5633 17.1463 18.0365 16.6501 17.389 16.6501H11.9935C11.346 16.6501 10.8191 17.1463 10.8191 17.7562V25.9175H4.09426C4.00113 25.9175 3.92542 25.8462 3.92542 25.7586V12.7862H25.4571V20.5221C25.4286 20.5348 25.4003 20.5483 25.3727 20.5633L21.5134 22.6619C21.1355 22.8673 20.9096 23.2493 20.9242 23.6586C20.9515 24.4278 21.0563 25.1831 21.2334 25.9175H18.5633ZM26.3337 31.2303L26.0773 31.457C26.0126 31.5142 25.9111 31.5142 25.8462 31.4571L25.5898 31.2303C23.3351 29.2375 22.0364 26.5371 21.933 23.6269C21.931 23.5692 21.9635 23.5149 22.018 23.4853L25.8774 21.3867C25.9034 21.3725 25.9325 21.3655 25.9618 21.3655C25.991 21.3655 26.0202 21.3725 26.0462 21.3867L29.9057 23.4853C29.9601 23.5149 29.9926 23.5691 29.9905 23.6268C29.8871 26.5371 28.5884 29.2374 26.3337 31.2303Z" fill="#444444"/>
<path d="M27.9919 24.8556L25.6444 27.2484L24.4351 25.9153C24.254 25.7158 23.9355 25.6921 23.7235 25.8627C23.5115 26.0332 23.4866 26.3333 23.6677 26.5329L25.2459 28.2727C25.3395 28.376 25.4756 28.4366 25.6198 28.4392C25.6231 28.4393 25.6263 28.4393 25.6296 28.4393C25.7703 28.4393 25.9047 28.384 26.0003 28.2865L28.7333 25.5009C28.9225 25.3081 28.9098 25.0073 28.7051 24.8291C28.5005 24.6509 28.1812 24.6628 27.9919 24.8556Z" fill="#444444"/>
<path d="M13.0198 21.2839C12.7411 21.2839 12.5151 21.4968 12.5151 21.7593C12.5151 22.0218 12.7411 22.2346 13.0198 22.2346C13.2985 22.2346 13.5245 22.0218 13.5245 21.7593C13.5245 21.4968 13.2985 21.2839 13.0198 21.2839Z" fill="#444444"/>
<path d="M17.3722 8.49425C17.3722 7.10197 16.1696 5.96924 14.6914 5.96924C13.2131 5.96924 12.0105 7.10197 12.0105 8.49425C12.0105 9.88653 13.2131 11.0192 14.6914 11.0192C16.1696 11.0192 17.3722 9.88653 17.3722 8.49425ZM16.3628 8.49425C16.3628 9.19663 15.8717 9.79291 15.1961 9.99497V6.99347C15.8717 7.19559 16.3628 7.79187 16.3628 8.49425ZM13.0199 8.49425C13.0199 7.79181 13.5109 7.19552 14.1867 6.99347V9.99497C13.511 9.79298 13.0199 9.19669 13.0199 8.49425Z" fill="#444444"/>
</svg>
