<svg width="32" height="32" viewBox="0 0 32 32" fill="none" xmlns="http://www.w3.org/2000/svg">
<path d="M6.64229 25.7874C6.45821 25.9824 6.35542 26.2402 6.35485 26.5084V30.7497C6.35485 31.3353 6.82973 31.81 7.41553 31.81H13.2493C13.8351 31.81 14.31 31.3353 14.31 30.7497V26.5084C14.31 25.9228 13.8351 25.4481 13.2493 25.4481V24.4614C13.2655 23.2058 12.8557 21.9818 12.0868 20.9888C11.6359 20.3961 11.0215 19.9481 10.3191 19.7C9.20216 19.2309 8.17491 18.5719 7.28294 17.7522C6.455 17.0705 5.27879 17.0094 4.38463 17.6016L3.2375 14.9222C2.99356 14.3698 2.47333 13.9894 1.8728 13.9244C1.27226 13.8594 0.682647 14.1196 0.326058 14.607C-0.0305324 15.0944 -0.0999239 15.7349 0.144022 16.2873L2.22243 20.8579C2.50283 21.4766 2.8929 22.0395 3.3738 22.5194L6.64229 25.7874ZM13.2493 30.7497H7.41553V26.5084H13.2493V30.7497ZM1.10924 15.8489C1.02054 15.6538 1.03705 15.4271 1.15307 15.2469C1.26908 15.0667 1.46872 14.9578 1.68307 14.9577C1.93533 14.9575 2.1633 15.108 2.2622 15.3399L3.44858 18.1058C3.76361 18.8437 4.2177 19.5142 4.7861 20.0807L7.20869 22.503C7.34185 22.6408 7.53903 22.6961 7.72445 22.6476C7.90988 22.599 8.05468 22.4543 8.10322 22.2689C8.15175 22.0836 8.09646 21.8865 7.9586 21.7533L5.536 19.331C5.29239 19.0881 5.07336 18.8217 4.88209 18.5358C5.39139 18.144 6.1039 18.1559 6.59986 18.5644C7.59125 19.4739 8.73708 20.1993 9.98344 20.7063C10.4913 20.891 10.9345 21.2194 11.2589 21.6515C11.877 22.4565 12.2046 23.4468 12.1886 24.4614V25.4481H7.80321L4.1237 21.7698C3.73291 21.3797 3.4158 20.9222 3.18765 20.4194L1.10924 15.8489Z" fill="#3F3F3F"/>
<path d="M11.6583 28.0989H11.128C10.8351 28.0989 10.5977 28.3362 10.5977 28.629C10.5977 28.9218 10.8351 29.1592 11.128 29.1592H11.6583C11.9512 29.1592 12.1887 28.9218 12.1887 28.629C12.1887 28.3362 11.9512 28.0989 11.6583 28.0989Z" fill="#3F3F3F"/>
<path d="M30.1191 13.8975C29.4425 13.897 28.831 14.3003 28.5652 14.9223L27.4207 17.5916C26.5234 17.0024 25.3466 17.0669 24.5192 17.7507C23.6272 18.5704 22.6 19.2294 21.483 19.6985C20.7807 19.9466 20.1662 20.3946 19.7154 20.9874C18.9461 21.9807 18.5363 23.2054 18.5529 24.4615V25.4482C17.9671 25.4482 17.4922 25.9229 17.4922 26.5085V30.7498C17.4922 31.3354 17.9671 31.8101 18.5529 31.8101H24.3866C24.9724 31.8101 25.4473 31.3354 25.4473 30.7498V26.5085C25.4467 26.2403 25.3439 25.9825 25.1599 25.7875L28.4283 22.5195C28.9092 22.0396 29.2993 21.4767 29.5797 20.858L31.6581 16.2874C31.8964 15.7645 31.8524 15.1563 31.5414 14.673C31.2304 14.1897 30.695 13.8975 30.1201 13.8975H30.1191ZM24.3866 30.7498H18.5529V26.5085H24.3866V30.7498ZM30.6929 15.849L28.6145 20.4195C28.3863 20.9223 28.0692 21.3798 27.6784 21.7699L23.9989 25.4482H19.6136V24.4615C19.5975 23.4469 19.9252 22.4566 20.5432 21.6516C20.867 21.22 21.3092 20.8916 21.8161 20.7064C23.0627 20.1995 24.2087 19.4742 25.2002 18.5645C25.6956 18.1529 26.4101 18.139 26.9211 18.5311C26.7293 18.8191 26.5092 19.0873 26.264 19.3316L23.8414 21.754C23.6404 21.962 23.6433 22.2927 23.8479 22.4972C24.0525 22.7017 24.3832 22.7045 24.5913 22.5036L27.0139 20.0813C27.5823 19.5148 28.0364 18.8444 28.3514 18.1064L29.5378 15.34C29.637 15.1084 29.8649 14.9582 30.117 14.9583C30.3313 14.9584 30.5309 15.0673 30.647 15.2475C30.763 15.4277 30.7795 15.6545 30.6908 15.8495L30.6929 15.849Z" fill="#3F3F3F"/>
<path d="M20.674 28.0989H20.1436C19.8507 28.0989 19.6133 28.3362 19.6133 28.629C19.6133 28.9218 19.8507 29.1592 20.1436 29.1592H20.674C20.9669 29.1592 21.2043 28.9218 21.2043 28.629C21.2043 28.3362 20.9669 28.0989 20.674 28.0989Z" fill="#3F3F3F"/>
<path d="M21.7739 0.000131325C19.4459 -0.0139353 17.2561 1.10277 15.9009 2.99503C14.5457 1.10277 12.3558 -0.0139353 10.0279 0.000131325C5.79948 0.000131325 3.1727 2.67905 3.1727 6.99193C3.16164 8.04264 3.34132 9.08664 3.70304 10.0732H1.05134C0.758438 10.0732 0.520996 10.3106 0.520996 10.6034C0.520996 10.8962 0.758438 11.1336 1.05134 11.1336H4.18883C4.95444 12.3854 5.93004 13.4961 7.07282 14.4169C7.34436 14.6586 7.60794 14.894 7.85455 15.1289C9.65771 16.8471 15.327 21.4251 15.5678 21.6191C15.7622 21.7759 16.0396 21.7759 16.2339 21.6191C16.4747 21.4251 22.1446 16.8477 23.9472 15.1289C24.1938 14.894 24.4574 14.6586 24.7289 14.4169C25.8717 13.4961 26.8473 12.3854 27.6129 11.1336H30.7504C31.0433 11.1336 31.2808 10.8962 31.2808 10.6034C31.2808 10.3106 31.0433 10.0732 30.7504 10.0732H28.1014C28.4622 9.08648 28.641 8.04248 28.6291 6.99193C28.6291 2.67905 26.0023 0.000131325 21.7739 0.000131325ZM4.23338 6.99193C4.23338 3.2776 6.39929 1.06046 10.0279 1.06046C12.2702 1.05336 14.3395 2.26428 15.431 4.22235C15.5315 4.38529 15.7094 4.48451 15.9009 4.48451C16.0924 4.48451 16.2702 4.38529 16.3708 4.22235C17.4623 2.26428 19.5315 1.05336 21.7739 1.06046C25.4025 1.06046 27.5684 3.2776 27.5684 6.99193C27.5843 8.0513 27.3737 9.10185 26.9505 10.0732H23.856C23.6408 10.0733 23.447 10.2034 23.3654 10.4025L22.7746 8.33483C22.7091 8.10936 22.503 7.95383 22.2681 7.95258H22.265C22.0307 7.95257 21.8241 8.10623 21.7569 8.33059L20.7599 11.6537L19.6016 6.25129C19.5501 6.01007 19.3389 5.83625 19.0922 5.83194C18.8455 5.82764 18.6284 5.99399 18.5685 6.23326L17.608 10.0732H14.8402C14.625 10.0733 14.4312 10.2034 14.3496 10.4025L13.7588 8.33483C13.6933 8.10936 13.4872 7.95383 13.2524 7.95258C13.0136 7.94054 12.7995 8.09881 12.7411 8.33059L11.7441 11.6537L10.5858 6.25129C10.5342 6.00997 10.323 5.83611 10.0761 5.83193C9.82801 5.82305 9.60845 5.99139 9.5527 6.23326L8.59225 10.0732H4.85123C4.42809 9.10185 4.21744 8.0513 4.23338 6.99193ZM24.0225 13.6253C23.7425 13.8756 23.4699 14.1184 23.2148 14.3617C21.6911 15.8149 17.1684 19.4969 15.9009 20.5244C14.6334 19.4969 10.1111 15.8149 8.58695 14.3617C8.33185 14.1184 8.05926 13.8756 7.77924 13.6253C6.89563 12.898 6.10876 12.0606 5.43778 11.1336H9.00645C9.2497 11.1336 9.46177 10.9681 9.52088 10.7322L10.0274 8.70701L11.1411 13.8952C11.1917 14.132 11.3965 14.3044 11.6385 14.314C11.88 14.3214 12.0969 14.1671 12.1689 13.9365L13.2396 10.3691L13.8028 12.3397C13.8667 12.5632 14.0689 12.7191 14.3014 12.7241C14.5316 12.7219 14.7364 12.5775 14.8158 12.3614L15.2226 11.1336H18.0222C18.2655 11.1336 18.4776 10.9681 18.5367 10.7322L19.0431 8.70701L20.1569 13.8952C20.2075 14.132 20.4123 14.3044 20.6543 14.314H20.6739C20.9082 14.314 21.1148 14.1604 21.182 13.936L22.2528 10.3685L22.816 12.3392C22.8799 12.5627 23.082 12.7185 23.3145 12.7235C23.544 12.7192 23.7478 12.5756 23.8289 12.3609L24.2384 11.1336H26.364C25.693 12.0606 24.9061 12.898 24.0225 13.6253Z" fill="#646464"/>
</svg>
