<svg width="18" height="18" viewBox="0 0 18 18" fill="none" xmlns="http://www.w3.org/2000/svg">
<path d="M16.9298 7.20417H10.0858V0.360208C10.0858 0.162094 9.92374 0 9.72563 0H7.56438C7.36626 0 7.20417 0.162094 7.20417 0.360208V7.20417H0.360208C0.162094 7.20417 0 7.36626 0 7.56438V9.72563C0 9.92374 0.162094 10.0858 0.360208 10.0858H7.20417V16.9298C7.20417 17.1279 7.36626 17.29 7.56438 17.29H9.72563C9.92374 17.29 10.0858 17.1279 10.0858 16.9298V10.0858H16.9298C17.1279 10.0858 17.29 9.92374 17.29 9.72563V7.56438C17.29 7.36626 17.1279 7.20417 16.9298 7.20417Z" fill="#4F4F4F"/>
</svg>
