<svg width="21" height="26" viewBox="0 0 21 26" fill="none" xmlns="http://www.w3.org/2000/svg">
<path d="M10.5001 18.8996C10.3426 18.8996 10.1924 18.8282 10.0927 18.7053L3.26769 10.3053C3.13749 10.1457 3.11334 9.92416 3.20469 9.73936L4.77969 6.58936C4.86999 6.41191 5.05164 6.29956 5.25009 6.29956H15.7501C15.9485 6.29956 16.1302 6.41191 16.2194 6.58936L17.7944 9.73936C17.8868 9.92416 17.8616 10.1457 17.7314 10.3053L10.9064 18.7053C10.8077 18.8282 10.6576 18.8996 10.5001 18.8996ZM4.29669 9.90631L10.5001 17.5419L16.7035 9.90631L15.4256 7.34956H5.57454L4.29669 9.90631Z" fill="#333D44"/>
<path d="M17.3249 10.4997H3.6749C3.3851 10.4997 3.1499 10.2645 3.1499 9.97471C3.1499 9.68491 3.3851 9.44971 3.6749 9.44971H17.3249C17.6147 9.44971 17.8499 9.68491 17.8499 9.97471C17.8499 10.2645 17.6147 10.4997 17.3249 10.4997Z" fill="#333D44"/>
<path d="M10.4999 18.8996C10.2101 18.8996 9.97485 18.6644 9.97485 18.3746V6.82456C9.97485 6.53476 10.2101 6.29956 10.4999 6.29956C10.7897 6.29956 11.0249 6.53476 11.0249 6.82456V18.3746C11.0249 18.6644 10.7897 18.8996 10.4999 18.8996Z" fill="#333D44"/>
<path d="M10.5 25.1997C10.4548 25.1997 10.4097 25.1945 10.3666 25.1819C10.2627 25.1556 0 22.3437 0 12.7877V4.19974C0 3.98029 0.13755 3.78289 0.34335 3.70729L10.3183 0.0322875C10.4349 -0.0107625 10.564 -0.0107625 10.6817 0.0322875L20.6566 3.70729C20.8624 3.78289 21 3.98029 21 4.19974V12.7877C21 22.3448 10.7373 25.1556 10.6333 25.1829C10.5903 25.1945 10.5451 25.1997 10.5 25.1997ZM1.05 4.56619V12.7877C1.05 21.0638 9.2925 23.777 10.5 24.1298C11.7075 23.777 19.95 21.0638 19.95 12.7877V4.56619L10.5 1.08439L1.05 4.56619Z" fill="#333D44"/>
</svg>
