<svg width="21" height="18" viewBox="0 0 21 18" fill="none" xmlns="http://www.w3.org/2000/svg">
<rect width="20.4606" height="17.9574" fill="white"/>
<rect x="0.5" y="0.5" width="19.4606" height="16.9574" stroke="#C2D1D9"/>
<rect x="6.3396" y="6.06982" width="8.06897" height="5.83208" rx="2.91604" fill="white"/>
<path fill-rule="evenodd" clip-rule="evenodd" d="M13.9347 6.07007H6.81498C6.55284 6.07007 6.34033 6.25658 6.34033 6.48665V11.4856C6.34033 11.7156 6.55284 11.9021 6.81498 11.9021H13.9347C14.1968 11.9021 14.4093 11.7156 14.4093 11.4856V6.48665C14.4093 6.25658 14.1968 6.07007 13.9347 6.07007ZM6.81488 11.4855V6.48655H13.9346V11.4855H6.81488Z" fill="#C2D1D9"/>
<path fill-rule="evenodd" clip-rule="evenodd" d="M7.64526 7.78889C7.64526 8.22027 8.04371 8.56998 8.53522 8.56998C9.02674 8.56998 9.42518 8.22027 9.42518 7.78889C9.42518 7.35751 9.02674 7.00781 8.53522 7.00781C8.04371 7.00781 7.64526 7.35751 7.64526 7.78889ZM8.95035 7.78879C8.95035 7.9901 8.76441 8.1533 8.53504 8.1533C8.30567 8.1533 8.11973 7.9901 8.11973 7.78879C8.11973 7.58748 8.30567 7.42429 8.53504 7.42429C8.76441 7.42429 8.95035 7.58748 8.95035 7.78879Z" fill="#C2D1D9"/>
<path d="M8.04967 11.0088C7.95659 11.0898 7.80633 11.0893 7.71405 11.0076C7.62177 10.9259 7.62242 10.794 7.7155 10.713L9.6674 9.01465L10.7675 9.85449C10.8664 9.92998 10.8769 10.0615 10.7909 10.1483C10.7048 10.2351 10.5549 10.2443 10.456 10.1688L9.68852 9.58288L8.04967 11.0088Z" fill="#C2D1D9"/>
<path d="M9.82995 11.0081C9.73727 11.0894 9.58701 11.0894 9.49432 11.0081C9.40164 10.9267 9.40163 10.7949 9.49431 10.7135L12.6178 7.97192L14.3278 9.28876C14.4263 9.36463 14.4361 9.49624 14.3496 9.5827C14.2632 9.66917 14.1133 9.67776 14.0147 9.60189L12.639 8.54246L9.82995 11.0081Z" fill="#C2D1D9"/>
</svg>
