<svg width="21" height="24" viewBox="0 0 21 24" fill="none" xmlns="http://www.w3.org/2000/svg">
<path d="M5.86844 2.99473C5.78889 2.91517 5.65986 2.91517 5.58031 2.99473L4.57387 4.00135L4.17959 3.60705C4.1 3.52748 3.97101 3.52748 3.89146 3.60705L3.34482 4.15387C3.26527 4.23344 3.26527 4.36249 3.34482 4.44205L4.15644 5.25377C4.27171 5.36906 4.42274 5.4267 4.57383 5.4267C4.72491 5.4267 4.87599 5.36906 4.99121 5.25377L6.41504 3.82969C6.49459 3.75013 6.49459 3.62108 6.41504 3.54151L5.86844 2.99473Z" fill="#333D44"/>
<path d="M5.86844 6.6959C5.78889 6.61634 5.65986 6.61634 5.58031 6.6959L4.57387 7.70252L4.17959 7.30822C4.1 7.22865 3.97101 7.22865 3.89146 7.30822L3.34482 7.855C3.26527 7.93457 3.26527 8.06362 3.34482 8.14318L4.15644 8.95489C4.27171 9.07018 4.42274 9.12778 4.57383 9.12778C4.72491 9.12778 4.87599 9.07014 4.99121 8.95485L6.41504 7.53078C6.49459 7.45121 6.49459 7.32216 6.41504 7.2426L5.86844 6.6959Z" fill="#333D44"/>
<path d="M5.86844 10.3981C5.78889 10.3185 5.65986 10.3185 5.58031 10.3981L4.57387 11.4047L4.17959 11.0104C4.1 10.9308 3.97101 10.9308 3.89146 11.0104L3.34482 11.5571C3.26527 11.6367 3.26527 11.7658 3.34482 11.8453L4.15644 12.657C4.27171 12.7723 4.42274 12.83 4.57383 12.83C4.72491 12.83 4.87599 12.7723 4.99121 12.657L6.41504 11.233C6.49459 11.1534 6.49459 11.0244 6.41504 10.9448L5.86844 10.3981Z" fill="#333D44"/>
<path d="M5.86844 14.0995C5.78889 14.0199 5.65986 14.0199 5.58031 14.0995L4.57387 15.1061L4.17959 14.7118C4.1 14.6322 3.97101 14.6322 3.89146 14.7118L3.34482 15.2586C3.26527 15.3381 3.26527 15.4672 3.34482 15.5467L4.15644 16.3585C4.27171 16.4737 4.42274 16.5313 4.57383 16.5313C4.72491 16.5313 4.87599 16.4737 4.99121 16.3584L6.41504 14.9343C6.49459 14.8548 6.49459 14.7257 6.41504 14.6462L5.86844 14.0995Z" fill="#333D44"/>
<path d="M5.86844 17.8002C5.78889 17.7206 5.65986 17.7206 5.58031 17.8002L4.57387 18.8068L4.17959 18.4125C4.1 18.3329 3.97101 18.3329 3.89146 18.4125L3.34482 18.9592C3.26527 19.0388 3.26527 19.1679 3.34482 19.2474L4.15644 20.0591C4.27171 20.1744 4.42274 20.2321 4.57383 20.2321C4.72491 20.2321 4.87599 20.1744 4.99121 20.0591L6.41504 18.6351C6.49459 18.5555 6.49459 18.4265 6.41504 18.3469L5.86844 17.8002Z" fill="#333D44"/>
<path d="M15.7434 6.23716C15.5746 6.0683 15.3008 6.0683 15.132 6.23716L14.6071 6.76215C14.4383 6.93101 14.4383 7.20479 14.6071 7.37364L15.5531 8.31977C15.71 8.47674 15.9156 8.55516 16.1212 8.55516C16.3268 8.55516 16.5325 8.4767 16.6893 8.31981L18.4586 6.55028C18.6274 6.38143 18.6274 6.10765 18.4586 5.93879L17.9337 5.41375C17.7648 5.2449 17.4911 5.2449 17.3223 5.41375L16.1212 6.61504L15.7434 6.23716Z" fill="#333D44"/>
<path d="M8.1592 4.98506H10.2916C10.5449 4.98506 10.7501 4.77975 10.7501 4.52646C10.7501 4.27318 10.5449 4.06787 10.2916 4.06787H8.1592C7.90596 4.06787 7.70068 4.27318 7.70068 4.52646C7.70068 4.77975 7.90596 4.98506 8.1592 4.98506Z" fill="#333D44"/>
<path d="M8.1592 8.68647H10.2916C10.5449 8.68647 10.7501 8.48116 10.7501 8.22788C10.7501 7.9746 10.5449 7.76929 10.2916 7.76929H8.1592C7.90596 7.76929 7.70068 7.9746 7.70068 8.22788C7.70068 8.48116 7.90596 8.68647 8.1592 8.68647Z" fill="#333D44"/>
<path d="M8.1592 12.3886H12.8994C13.1527 12.3886 13.3579 12.1833 13.3579 11.93C13.3579 11.6767 13.1527 11.4714 12.8994 11.4714H8.1592C7.90596 11.4714 7.70068 11.6767 7.70068 11.93C7.70068 12.1833 7.90596 12.3886 8.1592 12.3886Z" fill="#333D44"/>
<path d="M14.3195 15.1716H8.1592C7.90596 15.1716 7.70068 15.3769 7.70068 15.6302C7.70068 15.8835 7.90596 16.0888 8.1592 16.0888H14.3195C14.5728 16.0888 14.7781 15.8835 14.7781 15.6302C14.7781 15.3769 14.5728 15.1716 14.3195 15.1716Z" fill="#333D44"/>
<path d="M10.6852 18.873H8.1592C7.90596 18.873 7.70068 19.0784 7.70068 19.3316C7.70068 19.5849 7.90596 19.7902 8.1592 19.7902H10.6852C10.9384 19.7902 11.1437 19.5849 11.1437 19.3316C11.1437 19.0784 10.9384 18.873 10.6852 18.873Z" fill="#333D44"/>
<path d="M20.6967 3.48119L18.524 2.69924V0.458594C18.524 0.205312 18.3187 0 18.0655 0H0.458515C0.205277 0 0 0.205312 0 0.458594V23.0214C0 23.2747 0.205277 23.48 0.458515 23.48H14.5897C14.7113 23.48 14.8279 23.4317 14.9139 23.3457L18.3897 19.8693C18.4757 19.7833 18.524 19.6667 18.524 19.545V10.9553C20.0592 9.68518 21 7.77151 21 5.70514V3.91268C21 3.71929 20.8787 3.54663 20.6967 3.48119ZM15.0482 21.9143V20.0036H16.9586L15.0482 21.9143ZM17.607 19.0864H14.5897C14.3364 19.0864 14.1312 19.2917 14.1312 19.545V22.5628H0.917031V0.917187H17.607V2.36923L16.4883 1.96663C16.4362 1.9465 16.3803 1.93577 16.3233 1.93577C16.3232 1.93577 16.3231 1.93577 16.323 1.93577C16.2661 1.93577 16.2103 1.94646 16.1582 1.96654L11.9496 3.48119C11.7676 3.54667 11.6463 3.71929 11.6463 3.91268V5.70514C11.6463 8.57745 13.4639 11.1548 16.1693 12.1185C16.2191 12.1362 16.2711 12.1451 16.3231 12.1451C16.3752 12.1451 16.4272 12.1363 16.477 12.1185C16.8738 11.9772 17.2513 11.8009 17.607 11.5943V19.0864ZM20.083 5.70514C20.083 8.13559 18.5787 10.322 16.3231 11.1973C14.0676 10.322 12.5633 8.13559 12.5633 5.70514V4.23502L16.3231 2.88194L20.083 4.23502V5.70514Z" fill="#333D44"/>
</svg>
