<svg width="31" height="31" viewBox="0 0 31 31" fill="none" xmlns="http://www.w3.org/2000/svg">
<path d="M30.9473 30.276L23.4474 15.2763C23.3624 15.1068 23.1894 14.9998 22.9999 14.9998H18.0535L18.1165 14.7273C20.1235 14.0418 21.5 12.1394 21.5 9.99991C21.5 7.24296 19.257 5 16.5001 5C13.7431 5 11.5002 7.24296 11.5002 9.99991C11.5002 12.1394 12.8766 14.0418 14.8836 14.7273L14.9466 14.9998H8.00022C7.81073 14.9998 7.63773 15.1068 7.55273 15.2763L0.0528731 30.276C-0.0246255 30.431 -0.0166256 30.615 0.0748727 30.7625C0.166371 30.9095 0.326868 30.9995 0.500365 30.9995H30.4998C30.6733 30.9995 30.8338 30.9095 30.9253 30.7625C31.0163 30.615 31.0248 30.431 30.9473 30.276ZM14.6466 27.8531L16.7931 29.9995H15.2071L11.3537 26.1461C11.1582 25.9506 10.8422 25.9506 10.6467 26.1461L6.79325 29.9995H5.20728L9.85369 25.3531C10.0492 25.1576 10.0492 24.8416 9.85369 24.6461L5.94176 20.7342L6.47025 19.6767L8.64621 21.8527C8.74421 21.9507 8.87221 21.9997 9.00021 21.9997C9.1282 21.9997 9.2562 21.9507 9.3537 21.8532L11.8537 19.3532C11.9477 19.2597 12.0001 19.1322 12.0001 18.9997V15.9998H13.0001V19.7927L10.1467 22.6462C9.95119 22.8417 9.95119 23.1577 10.1467 23.3532L13.1466 26.3531C13.2441 26.4506 13.3721 26.4996 13.5001 26.4996C13.6281 26.4996 13.7561 26.4506 13.8536 26.3531L18.207 21.9997H25.6909L26.1909 22.9997H19C18.867 22.9997 18.74 23.0522 18.6465 23.1462L14.6466 27.1461C14.4511 27.3416 14.4511 27.6576 14.6466 27.8531ZM13.7931 29.9995H8.20722L11.0002 27.2066L13.7931 29.9995ZM12.5001 9.99991C12.5001 7.79445 14.2946 5.99998 16.5001 5.99998C18.7055 5.99998 20.5 7.79445 20.5 9.99991C20.5 11.7924 19.2915 13.3763 17.5615 13.8523C17.3845 13.9013 17.2486 14.0428 17.2071 14.2218L16.5001 17.2803L15.7931 14.2218C15.7516 14.0428 15.6156 13.9008 15.4386 13.8523C13.7086 13.3763 12.5001 11.7924 12.5001 9.99991ZM16.0126 19.6122C16.0656 19.8392 16.2671 19.9997 16.5001 19.9997C16.7331 19.9997 16.9346 19.8392 16.9876 19.6122L17.8225 15.9998H22.6909L25.1909 20.9997H18C17.867 20.9997 17.74 21.0522 17.6465 21.1462L13.5001 25.2926L11.2072 22.9997L13.8536 20.3532C13.9476 20.2597 14.0001 20.1322 14.0001 19.9997V15.9998H15.1776L16.0126 19.6122ZM8.30922 15.9998H11.0002V18.7927L9.00021 20.7927L6.94174 18.7342L8.30922 15.9998ZM5.47077 21.6772L8.79321 24.9996L3.7933 29.9995H1.30935L5.47077 21.6772ZM18.207 29.9995L15.7071 27.4996L19.207 23.9996H26.6909L28.6908 27.9996H26.2674L24.4159 25.2221C24.3329 25.0971 24.1979 25.0166 24.0494 25.0021C23.8984 24.9866 23.7524 25.0406 23.6464 25.1461L22.6999 26.0921L21.934 24.7511C21.7565 24.4396 21.2435 24.4396 21.066 24.7511L19.21 27.9996H18V28.9995H29.1908L29.6908 29.9995H18.207ZM22.6385 27.9996H20.3615L21.5 26.0076L22.6385 27.9996ZM23.7899 27.9996L23.2144 26.9921L23.9224 26.2846L25.0659 27.9996H23.7899Z" fill="#444444"/>
<path d="M18.5 9.9997H19.4999C19.4999 8.34523 18.1545 6.99976 16.5 6.99976V7.99974C17.603 7.99974 18.5 8.89672 18.5 9.9997Z" fill="#444444"/>
<path d="M17.6995 11.5998L18.3 12.3998C18.7149 12.0878 19.0429 11.6733 19.2494 11.1998L18.3335 10.7998C18.1965 11.1153 17.977 11.3918 17.6995 11.5998Z" fill="#444444"/>
<path d="M1.50046 6.99987C1.33346 6.99987 1.17747 7.08337 1.08447 7.22236L0.0844867 8.72234C-0.0275112 8.89033 -0.0275112 9.10883 0.0844867 9.27683L1.08447 10.7768C1.17747 10.9163 1.33346 10.9998 1.50046 10.9998H4.00041V15.4997C4.00041 15.7757 4.22391 15.9997 4.5004 15.9997H6.50037C6.77686 15.9997 7.00036 15.7757 7.00036 15.4997V10.9998H10.5003C10.6848 10.9998 10.8543 10.8983 10.9413 10.7358C11.0283 10.5733 11.0183 10.3758 10.9163 10.2228L10.1013 8.99983L10.9163 7.77735C11.0183 7.62386 11.0283 7.42686 10.9413 7.26436C10.8543 7.10187 10.6848 6.99987 10.5003 6.99987H7.00036V5.99989H9.50031C9.66731 5.99989 9.82331 5.91639 9.9163 5.77739L10.9163 4.27742C11.0283 4.10942 11.0283 3.89093 10.9163 3.72293L9.9163 2.22296C9.82331 2.08346 9.66731 1.99996 9.50031 1.99996H7.00036V0.499991C7.00036 0.223996 6.77686 0 6.50037 0H4.5004C4.22391 0 4.00041 0.223996 4.00041 0.499991V1.99996H0.500479C0.315982 1.99996 0.146486 2.10146 0.0594872 2.26396C-0.0275112 2.42645 -0.0175114 2.62395 0.0844867 2.77695L0.899472 3.99993L0.0844867 5.2224C-0.0175114 5.3759 -0.0275112 5.5729 0.0594872 5.73539C0.146486 5.89789 0.315982 5.99989 0.500479 5.99989H4.00041V6.99987H1.50046ZM6.00038 14.9997H5.00039V10.9998H6.00038V14.9997ZM9.08432 9.27733L9.56631 9.99981H1.76796L1.10147 8.99983L1.76796 7.99985H9.56631L9.08432 8.72234C8.97232 8.89033 8.97232 9.10933 9.08432 9.27733ZM5.00039 0.999981H6.00038V1.99996H5.00039V0.999981ZM1.91645 3.72243L1.43446 2.99994H9.23282L9.8993 3.99993L9.23282 4.99991H1.43446L1.91645 4.27742C2.02845 4.10942 2.02845 3.89043 1.91645 3.72243ZM5.00039 5.99989H6.00038V6.99987H5.00039V5.99989Z" fill="#444444"/>
<path d="M2.00024 8.49976H3.00023V9.49974H2.00024V8.49976Z" fill="#444444"/>
<path d="M4.00024 8.49976H5.00023V9.49974H4.00024V8.49976Z" fill="#444444"/>
<path d="M8.00024 3.5H9.00023V4.49998H8.00024V3.5Z" fill="#444444"/>
<path d="M6.00024 3.5H7.00023V4.49998H6.00024V3.5Z" fill="#444444"/>
</svg>
